<svg width="50" height="50" viewBox="0 0 50 50" fill="none" xmlns="http://www.w3.org/2000/svg">
<g id="Gym">
<g id="Vector">
<path d="M21.1584 21.8992L14.3247 15.1191C11.6111 12.4272 12.0564 9.16857 13.8987 7.34114C15.6758 5.57838 18.7941 5.10444 21.4483 7.48962C23.0535 6.04501 24.9758 5.49254 26.7709 5.96893C27.6355 6.20022 28.4238 6.65258 29.057 7.28081C29.6902 7.90904 30.1461 8.69114 30.3792 9.54895C30.5461 10.167 30.5882 10.7997 30.5114 11.4289L29.6119 11.8527C29.7814 11.1581 29.7766 10.4523 29.5895 9.75968C29.3939 9.03992 29.0113 8.38369 28.48 7.85655C27.9487 7.32942 27.2873 6.94983 26.5618 6.75572C24.9217 6.3192 23.2077 6.88143 21.7382 8.33907C21.6613 8.41533 21.557 8.45818 21.4483 8.45818C21.3395 8.45818 21.2353 8.41533 21.1584 8.33907C19.9504 7.14057 18.6711 6.6589 17.5049 6.6589C16.3681 6.66394 15.2797 7.11617 14.4785 7.91638C12.9724 9.41063 12.4636 12.1221 14.9045 14.5439L21.4483 21.0363L24.1937 18.3131L24.6981 18.9621L21.7382 21.8992C21.6613 21.9755 21.557 22.0183 21.4483 22.0183C21.3395 22.0183 21.2353 21.9755 21.1584 21.8992Z" fill="black"/>
<path fill-rule="evenodd" clip-rule="evenodd" d="M46.0323 21.7763H42.8871V41.1393H46.0323C46.5667 41.1393 47 40.7059 47 40.1712V22.7444C47 22.2097 46.5667 21.7763 46.0323 21.7763ZM46.0323 22.7444H43.8548V40.1712H46.0323V22.7444Z" fill="black"/>
<path fill-rule="evenodd" clip-rule="evenodd" d="M2.96774 40.8973H6.1129V21.5342H2.96774C2.43327 21.5342 2 21.9677 2 22.5024V39.9291C2 40.4638 2.43327 40.8973 2.96774 40.8973ZM2.96774 39.9291H5.14516V22.5024H2.96774V39.9291Z" fill="black"/>
<path fill-rule="evenodd" clip-rule="evenodd" d="M36.5968 28.7954H12.4032V33.8782H36.5968V28.7954ZM35.629 29.7635H13.371V32.91H35.629V29.7635Z" fill="black"/>
<path fill-rule="evenodd" clip-rule="evenodd" d="M36.3548 19.1139C35.954 19.1139 35.629 19.439 35.629 19.84V43.0756C35.629 43.4767 35.954 43.8018 36.3548 43.8018H41.1935C41.5944 43.8018 41.9194 43.4767 41.9194 43.0756V19.84C41.9194 19.439 41.5944 19.1139 41.1935 19.1139H36.3548ZM40.9516 20.082H36.5968V42.8336H40.9516V20.082Z" fill="black"/>
<path fill-rule="evenodd" clip-rule="evenodd" d="M7.80645 19.1139C7.4056 19.1139 7.08065 19.439 7.08065 19.84V43.0756C7.08065 43.4767 7.4056 43.8018 7.80645 43.8018H12.6452C13.046 43.8018 13.371 43.4767 13.371 43.0756V19.84C13.371 19.439 13.046 19.1139 12.6452 19.1139H7.80645ZM12.4032 20.082H8.04839V42.8336H12.4032V20.082Z" fill="black"/>
<path fill-rule="evenodd" clip-rule="evenodd" d="M29.5027 21.9436L25.2203 17.6935C23.5197 16.006 23.7988 13.9633 24.9533 12.8177C26.0669 11.7127 28.0211 11.4156 29.6843 12.9108C30.6903 12.0052 31.8949 11.6589 33.0199 11.9575C33.5617 12.1025 34.0557 12.3861 34.4525 12.7799C34.8493 13.1737 35.135 13.664 35.2811 14.2017C35.6013 15.3883 35.1883 16.6609 34.1479 17.6935L29.866 21.9436C29.8178 21.9915 29.7525 22.0183 29.6843 22.0183C29.6162 22.0183 29.5509 21.9915 29.5027 21.9436ZM25.5027 13.367C25.9837 12.8837 26.6371 12.6105 27.3196 12.6074C28.0196 12.6074 28.7876 12.8984 29.5128 13.6224C29.5589 13.6684 29.6215 13.6943 29.6868 13.6943C29.7521 13.6943 29.8147 13.6684 29.8608 13.6224C30.7431 12.7419 31.772 12.4022 32.7566 12.6659C33.1921 12.7832 33.5891 13.0125 33.9081 13.3309C34.227 13.6493 34.4567 14.0457 34.5742 14.4805C34.8381 15.4635 34.4979 16.4902 33.6161 17.3704L29.6868 21.1712L25.7585 17.3704C24.2931 15.9075 24.5986 14.2696 25.5027 13.367Z" fill="black"/>
</g>
</g>
</svg>
