<svg width="50" height="50" viewBox="0 0 50 50" fill="none" xmlns="http://www.w3.org/2000/svg">
<g id="&#208;&#151;&#208;&#180;&#208;&#190;&#209;&#128;&#208;&#190;&#208;&#178;&#209;&#140;&#208;&#181;">
<g id="Vector">
<path d="M40.2737 14.3675C40.3874 14.3659 40.4992 14.3977 40.5963 14.4592C40.6934 14.5208 40.7718 14.6096 40.8226 14.7155L43.678 20.6608H46.9324C47.0927 20.6608 47.2465 20.7271 47.3599 20.8451C47.4733 20.9631 47.537 21.1232 47.537 21.2901C47.537 21.457 47.4733 21.6171 47.3599 21.7351C47.2465 21.8531 47.0927 21.9194 46.9324 21.9194H43.305C43.1926 21.9195 43.0825 21.887 42.9869 21.8255C42.8913 21.764 42.8141 21.676 42.7639 21.5714L40.2821 16.4046L34.7769 27.8647C34.7267 27.9693 34.6496 28.0572 34.554 28.1187C34.4585 28.1802 34.3484 28.2127 34.2362 28.2127C34.1239 28.2127 34.0138 28.1802 33.9183 28.1187C33.8228 28.0572 33.7456 27.9693 33.6954 27.8647L30.0045 20.1806L28.1267 24.0887C28.0837 24.1783 28.0207 24.2558 27.9431 24.315C27.8655 24.3741 27.7754 24.4131 27.6804 24.4288C27.5854 24.4444 27.4882 24.4362 27.3968 24.4049C27.3055 24.3735 27.2226 24.32 27.1552 24.2486L24.9527 21.9194H21.5405C21.3802 21.9194 21.2264 21.8531 21.113 21.7351C20.9997 21.6171 20.936 21.457 20.936 21.2901C20.936 21.1232 20.9997 20.9631 21.113 20.8451C21.2264 20.7271 21.3802 20.6608 21.5405 20.6608H25.2054C25.2857 20.6608 25.3651 20.6774 25.4391 20.7097C25.5131 20.742 25.5802 20.7894 25.6365 20.8489L27.423 22.7376L29.4634 18.4908C29.5135 18.3861 29.5907 18.298 29.6863 18.2364C29.7819 18.1749 29.8921 18.1422 30.0045 18.1422C30.1169 18.1422 30.2271 18.1749 30.3227 18.2364C30.4182 18.298 30.4954 18.3861 30.5456 18.4908L34.2365 26.1756L39.741 14.7155C39.7906 14.6122 39.8665 14.5251 39.9605 14.4637C40.0544 14.4023 40.1628 14.369 40.2737 14.3675Z" fill="black"/>
<path d="M7.45092 4.5309C7.49278 4.54708 7.53337 4.56688 7.57222 4.59019C7.71314 4.67474 7.82403 4.80124 7.88933 4.95194C7.95462 5.10263 7.97105 5.26996 7.93632 5.43046C7.82097 5.96291 7.79554 6.45881 7.84568 6.92162C8.09795 6.74824 8.3565 6.58511 8.62068 6.43251C10.3678 5.4233 12.3611 4.87451 14.4122 4.8653C17.5939 4.8653 21.0844 6.19449 24.3802 9.50176C24.59 9.71223 24.8745 9.83046 25.1711 9.83046C25.4678 9.83046 25.7523 9.71223 25.9621 9.50176C29.9717 5.47938 34.648 3.9279 39.123 5.13248C41.1023 5.66814 42.9069 6.71562 44.3565 8.17026C45.8061 9.6249 46.85 11.4358 47.3838 13.422C48.5831 17.9125 47.037 22.6029 43.0296 26.6241L25.1711 44.5402L12.8079 32.1685C10.9362 31.8072 9.48929 31.7963 7.93632 30.8087L24.3802 46.9213C24.59 47.1318 24.8745 47.25 25.1711 47.25C25.4678 47.25 25.7523 47.1318 25.9621 46.9213L44.6048 28.2115C49.1346 23.666 50.9325 18.0641 49.5385 12.8405C48.9025 10.4733 47.6585 8.3151 45.9309 6.58149C44.2033 4.84788 42.0525 3.59958 39.6936 2.96132C34.7957 1.64671 29.551 3.17125 25.1711 7.15771C19.6647 2.15283 13.426 1.70981 8.62068 3.92349C8.2204 4.10789 7.83006 4.31073 7.45092 4.5309Z" fill="black"/>
<path d="M17.6717 30.7396C18.1481 30.6145 18.6181 30.4662 19.0799 30.2953C19.1006 30.2879 19.1202 30.2736 19.1405 30.2644C19.6242 30.6355 20.0156 31.1126 20.2844 31.6589C20.5532 32.2051 20.6922 32.8057 20.6905 33.4141C20.6914 33.6093 20.7702 33.7961 20.9094 33.9334C21.0485 34.0708 21.2368 34.1474 21.4326 34.1464C21.6285 34.1454 21.8159 34.0669 21.9537 33.9282C22.0915 33.7895 22.1684 33.6019 22.1674 33.4067C22.1723 32.5911 21.9905 31.785 21.6358 31.0499C21.2812 30.3148 20.763 29.67 20.1207 29.1646C20.4928 28.4318 20.7836 27.6607 20.9879 26.8649C22.4634 20.6435 20.1797 16.1906 14.2011 13.6298C11.1989 12.3443 6.06214 10.5787 6.97848 6.35795C7.01105 6.20781 6.99564 6.05128 6.93443 5.9103C6.87321 5.76933 6.76926 5.651 6.63714 5.57189C6.50503 5.49279 6.35139 5.45689 6.19777 5.46923C6.04414 5.48157 5.89825 5.54153 5.78055 5.64069C3.00347 7.97528 1.13424 10.0998 0.398354 13.4706C-0.107843 15.6365 -0.131909 17.8866 0.327848 20.0627C0.787605 22.2389 1.72003 24.2882 3.05956 26.0668C5.46612 29.3246 9.63969 31.2108 13.9701 31.2108C15.219 31.2117 16.463 31.0531 17.6717 30.7396ZM4.249 25.195C3.0361 23.5835 2.19203 21.7267 1.77615 19.7553C1.36026 17.7838 1.38263 15.7455 1.8417 13.7836C2.36833 11.3696 3.59689 9.64852 5.40671 7.93886C5.79937 11.9912 10.4169 13.6107 13.6177 14.9812C18.988 17.2812 20.8731 20.9499 19.5508 26.5269C19.3835 27.1541 19.1591 27.7648 18.8803 28.3513C17.5089 27.5815 14.3255 25.6202 12.4249 23.0473C12.3089 22.8901 12.135 22.7852 11.9415 22.7558C11.7479 22.7264 11.5506 22.7748 11.3929 22.8904C11.2351 23.006 11.1299 23.1793 11.1004 23.3722C11.0709 23.5651 11.1195 23.7618 11.2355 23.919C13.0501 26.3757 15.8386 28.2667 17.5019 29.258C17.4347 29.2768 17.3653 29.2992 17.2982 29.3169C13.2571 30.3685 7.44976 29.5273 4.249 25.195Z" fill="black"/>
</g>
</g>
</svg>
