<svg width="50" height="50" viewBox="0 0 50 50" fill="none" xmlns="http://www.w3.org/2000/svg">
<g id="Mom" clip-path="url(#clip0_535_1602)">
<g id="Vector">
<path d="M32.6417 0.587691C32.5545 0.791462 30.4176 5.34555 27.895 10.7297C25.3733 16.1146 23.2708 20.6065 23.2188 20.7001C23.1492 20.8567 22.0803 20.9039 18.7178 20.9039H14.3215L12.8503 19.5891C11.7822 18.634 11.0814 18.1336 10.311 17.8204C9.25968 17.3979 9.17249 17.3822 5.33627 17.335C1.97371 17.2878 1.37765 17.3035 1.00962 17.523C0.483984 17.8204 0.448773 18.2587 0.887223 18.6033C1.16723 18.8378 1.71047 18.8692 4.95063 18.8692C7.36755 18.8692 8.92686 18.9321 9.38208 19.0573C9.80208 19.1666 10.4853 19.5892 11.0638 20.0746L12.0446 20.8889L7.26276 20.9047C4.3026 20.9047 2.3409 20.9676 2.13047 21.0612C1.81526 21.2178 1.79766 21.4208 1.79766 23.7065C1.79766 25.7569 1.86808 26.3675 2.14808 27.2125C3.04174 29.8106 5.65149 31.9239 8.5932 32.4715C9.17165 32.5809 12.0966 32.6438 16.4752 32.6438H23.4284L19.3474 36.2915L18.4889 35.806C15.932 34.3347 12.8318 34.1624 10.2221 35.3206C5.66825 37.3553 4.03936 42.3948 6.70108 46.1203C7.54193 47.2628 8.99561 48.4052 10.4669 49.0315C11.5349 49.4855 12.043 49.5949 13.2342 49.6578C15.844 49.8144 17.7361 49.1881 19.6802 47.5602C20.9763 46.4642 21.8171 45.1966 22.1675 43.8197L22.4132 42.896H28.4726L28.7007 43.7882C29.3135 46.1518 31.4504 48.343 34.0249 49.2353C35.2514 49.6735 37.5107 49.8144 38.7716 49.5484C40.8733 49.1102 43.0102 47.7482 44.2015 46.0896C46.3384 43.0997 45.6904 38.9839 42.6782 36.5889C39.7005 34.2096 35.5842 33.8964 32.3793 35.806L31.5384 36.2915L27.4574 32.6423H34.6386C42.5726 32.6423 42.9582 32.6109 44.9551 31.6565C46.356 30.9837 47.6353 29.8255 48.4233 28.495C49.3162 26.9615 49.4746 26.085 49.4042 23.3297C49.3346 21.232 49.2818 20.8724 48.8609 19.933C48.2305 18.4931 47.7225 16.161 47.6177 14.2043L47.5305 12.5921L46.532 11.6219C45.236 10.3386 43.3615 7.80276 42.6086 6.33144L42.031 5.14178L40.7174 4.62561C39.0709 3.96786 36.1811 2.26204 34.7794 1.11959C33.5873 0.149444 32.9041 -0.0228637 32.6417 0.587691ZM34.849 2.98198C35.5147 3.45169 36.9331 4.31247 38.0196 4.87583L39.9989 5.92465L33.1329 12.0759C29.3487 15.4568 26.2142 18.2115 26.179 18.1643C26.1261 18.1171 33.5353 2.1212 33.6225 2.1212C33.6577 2.1212 34.201 2.51301 34.849 2.98198ZM41.8374 8.02226C42.6606 9.35276 43.6415 10.6518 44.6399 11.747C45.3232 12.4984 45.376 12.6078 45.0951 12.7487C44.7799 12.8895 28.4911 18.9464 27.7374 19.1973C27.4926 19.291 30.4 16.5678 34.201 13.1554C38.002 9.7588 41.1365 6.97271 41.1541 6.97271C41.1717 6.97345 41.4693 7.44317 41.8374 8.02226ZM46.1112 14.7526C46.1112 15.6763 46.584 18.0392 47.0392 19.464L47.4592 20.7473H37.7388C32.3793 20.7473 28.0526 20.7159 28.0878 20.6852C28.1231 20.6537 31.556 19.3704 35.6899 17.8519C39.8413 16.3184 43.7295 14.8777 44.3599 14.6433C45.936 14.0327 46.1112 14.0327 46.1112 14.7526ZM18.6121 26.7728L23.6036 31.2489L8.36601 31.1545L7.36755 30.732C5.28345 29.8712 3.74175 28.0246 3.37373 25.9899C3.18091 24.9254 3.1457 22.5775 3.32091 22.4217C3.37372 22.3588 5.72023 22.3123 8.52278 22.3123H13.6199L18.6121 26.7728ZM47.8625 24.2691C47.8625 25.8183 47.7921 26.4132 47.5297 27.1024C46.8112 28.9183 45.148 30.3739 43.151 30.9215C42.1174 31.219 41.5398 31.2347 33.973 31.2347H25.8981L20.8891 26.7743L15.8976 22.3138H47.8625V24.2691ZM29.8391 38.0894C29.2087 38.9659 28.5959 40.4215 28.5959 41.0163V41.4074H22.2899V41.0163C22.2899 40.4215 21.6771 38.9502 21.0634 38.1366L20.5378 37.4167L25.5301 32.9555L30.3991 37.3066L29.8391 38.0894ZM16.5624 36.3836C17.8057 36.8219 19.5226 38.1838 20.1002 39.2161C20.3282 39.6229 20.6258 40.4373 20.7306 41.0163C21.3091 43.7552 19.7498 46.5256 16.9472 47.7624C15.9664 48.185 15.7559 48.2164 13.8823 48.2164C12.0077 48.2164 11.7982 48.185 10.8173 47.7624C8.08517 46.5571 6.49066 43.8024 6.99869 41.1415C7.47151 38.7 9.18842 36.9312 11.8677 36.1326C12.9022 35.8352 15.3192 35.9611 16.5624 36.3836ZM39.7181 36.3993C41.1717 36.9005 42.923 38.4498 43.4839 39.7645C44.0271 41.0321 44.0615 43.1454 43.5367 44.3194C42.7486 46.1038 41.295 47.3871 39.3333 48.0134C37.8796 48.4674 35.3923 48.373 34.0266 47.7939C32.5553 47.1834 31.5041 46.2604 30.7688 44.9299C30.2256 43.9598 30.1384 43.5994 30.0856 42.5663C29.9984 40.4065 30.5056 39.2012 32.0825 37.7928C33.7114 36.3529 34.9546 35.8989 37.1796 35.9925C38.194 36.0233 38.9996 36.1484 39.7181 36.3993Z" fill="black"/>
<path d="M13.0951 40.4372C11.5886 41.2666 11.4838 42.6285 12.8495 43.6616C13.3399 44.0369 13.5327 44.0841 14.216 44.0212C15.8448 43.8646 16.7553 42.1273 15.792 41.0313C15.0392 40.1713 14.0055 39.9518 13.0951 40.4372ZM14.584 41.7992C14.9168 42.1588 14.6368 42.66 14.0584 42.66C13.5327 42.66 13.2879 42.3311 13.4455 41.8621C13.5855 41.501 14.2688 41.4703 14.584 41.7992ZM36.1627 40.4687C35.5499 40.8133 34.9019 41.6269 34.9019 42.0809C34.9019 42.9888 36.0932 44.0684 37.074 44.0684C37.7044 44.0684 38.4573 43.7088 38.9133 43.1919C39.6318 42.3783 39.1933 40.9227 38.0725 40.39C37.3708 40.0769 36.8627 40.0926 36.1627 40.4687ZM37.6684 41.8142C37.7556 41.955 37.7908 42.2052 37.7388 42.3775C37.686 42.612 37.5284 42.6592 37.1084 42.6278C36.5651 42.5806 36.3379 42.2682 36.5484 41.7827C36.6699 41.4861 37.4764 41.501 37.6684 41.8142Z" fill="black"/>
</g>
</g>
<defs>
<clipPath id="clip0_535_1602">
<rect width="50" height="50" fill="white"/>
</clipPath>
</defs>
</svg>
