<svg width="50" height="50" viewBox="0 0 50 50" fill="none" xmlns="http://www.w3.org/2000/svg">
<g id="Talent Management">
<g id="Vector">
<mask id="path-1-outside-1_535_1600" maskUnits="userSpaceOnUse" x="0" y="0" width="49" height="50" fill="black">
<rect fill="white" width="49" height="50"/>
<path d="M7.15 18.8C7.05 19.05 6.85 19.25 6.55 19.3L2.4 20.1C1.85 20.2 1.4 20.65 1.3 21.2C1.1 22.45 1 23.75 1 25C1 26.25 1.1 27.55 1.3 28.8C1.4 29.35 1.85 29.8 2.4 29.9L6.55 30.7C6.85 30.75 7.1 31 7.15 31.25C7.3 31.85 7.55 32.45 7.95 33.15C8.1 33.4 8.05 33.7 7.9 33.95L5.5 37.45C5.2 37.95 5.2 38.55 5.5 39C7 41.1 8.8 42.9 10.9 44.4C11.35 44.75 12 44.75 12.45 44.4L15.95 42C16.2 41.85 16.45 41.85 16.7 41.95C17.35 42.25 18.05 42.55 18.7 42.8C18.95 42.9 19.15 43.1 19.2 43.4L20 47.55C20.1 48.1 20.55 48.55 21.1 48.65C22.35 48.85 23.65 48.95 24.9 48.95C26.15 48.95 27.45 48.85 28.7 48.65C29.25 48.55 29.7 48.1 29.8 47.55L30.6 43.4C30.65 43.1 30.85 42.9 31.1 42.8C31.8 42.55 32.45 42.3 33.1 41.95C33.35 41.85 33.6 41.85 33.85 42L37.35 44.4C37.85 44.7 38.45 44.7 38.9 44.4C41 42.9 42.8 41.1 44.3 39C44.65 38.55 44.65 37.9 44.3 37.45L41.9 33.95C41.75 33.75 41.75 33.45 41.85 33.2C42.15 32.55 42.45 31.85 42.7 31.15C42.8 30.9 43 30.7 43.3 30.65L47.45 29.85C48 29.75 48.45 29.3 48.55 28.75C48.75 27.5 48.85 26.2 48.85 24.95C48.85 23.7 48.75 22.4 48.55 21.15C48.45 20.6 48 20.15 47.45 20.05L43.3 19.25C43.05 19.2 42.8 19 42.7 18.75C42.45 18.05 42.2 17.4 41.85 16.75C41.75 16.5 41.75 16.2 41.9 16L44.3 12.5C44.6 12.05 44.6 11.4 44.3 10.95C42.8 8.85 41 7.05 38.9 5.55C38.45 5.2 37.8 5.2 37.35 5.55L33.85 7.95C33.65 8.1 33.35 8.15 33.1 8C32.45 7.7 31.75 7.4 31.1 7.15C30.85 7.05 30.65 6.85 30.6 6.55L29.8 2.4C29.7 1.85 29.25 1.4 28.7 1.3C26.2 0.9 23.6 0.9 21.1 1.3C20.55 1.4 20.1 1.85 20 2.4L19.2 6.55C19.15 6.85 18.95 7.05 18.7 7.15C18 7.4 17.35 7.65 16.7 8C16.45 8.1 16.2 8.1 15.95 7.95L12.45 5.55C11.95 5.25 11.35 5.25 10.9 5.55C8.8 7.05 7 8.85 5.5 10.95C5.15 11.4 5.15 12.05 5.5 12.5L7.9 16C8.05 16.2 8.1 16.5 7.95 16.75C7.65 17.45 7.4 18.1 7.15 18.8ZM8.75 15.45L6.35 11.95C6.25 11.8 6.25 11.65 6.35 11.55C7.8 9.55 9.55 7.8 11.5 6.4C11.6 6.3 11.8 6.3 11.9 6.4L15.4 8.8C15.9 9.15 16.6 9.2 17.15 8.95C17.75 8.65 18.4 8.4 19.05 8.15C19.65 7.95 20.1 7.45 20.2 6.8L21 2.65C21.05 2.5 21.15 2.4 21.3 2.35C23.7 1.95 26.2 1.95 28.6 2.35C28.75 2.35 28.85 2.5 28.9 2.65L29.7 6.8C29.8 7.45 30.25 7.95 30.85 8.15C31.5 8.35 32.15 8.65 32.75 8.95C33.3 9.2 34 9.15 34.5 8.8L38 6.4C38.15 6.3 38.3 6.3 38.4 6.4C40.4 7.85 42.15 9.6 43.55 11.55C43.65 11.65 43.65 11.85 43.55 11.95L41.15 15.45C40.8 15.95 40.75 16.65 41 17.2C41.3 17.85 41.6 18.5 41.8 19.1C42 19.7 42.5 20.15 43.15 20.25L47.3 21.05C47.45 21.1 47.55 21.2 47.6 21.35C47.8 22.55 47.9 23.8 47.9 25C47.9 26.2 47.8 27.45 47.6 28.65C47.6 28.8 47.45 28.9 47.3 28.95L43.15 29.75C42.5 29.85 42 30.3 41.8 30.9C41.6 31.55 41.3 32.2 41 32.8C40.7 33.35 40.75 34.05 41.15 34.55L43.55 38.05C43.65 38.2 43.65 38.35 43.55 38.45C42.1 40.45 40.35 42.2 38.4 43.6C38.3 43.7 38.1 43.7 38 43.6L34.5 41.2C34 40.85 33.3 40.8 32.75 41.05C32.1 41.35 31.5 41.6 30.85 41.85C30.25 42.05 29.8 42.55 29.7 43.2L28.9 47.35C28.85 47.5 28.75 47.6 28.6 47.65C26.2 48.05 23.7 48.05 21.3 47.65C21.15 47.65 21.05 47.5 21 47.35L20.2 43.2C20.1 42.55 19.65 42.05 19.05 41.85C18.4 41.65 17.75 41.35 17.15 41.05C16.9 40.95 16.65 40.9 16.4 40.9C16.05 40.9 15.7 41 15.4 41.2L11.9 43.6C11.75 43.7 11.6 43.7 11.5 43.6C9.5 42.15 7.75 40.4 6.35 38.45C6.25 38.35 6.25 38.15 6.35 38.05L8.75 34.55C9.15 34 9.15 33.25 8.85 32.7C8.5 32.1 8.3 31.55 8.15 31.05C8 30.4 7.45 29.85 6.75 29.75L2.6 28.95C2.45 28.9 2.35 28.8 2.3 28.65C2.1 27.45 2 26.2 2 25C2 23.8 2.1 22.55 2.3 21.35C2.3 21.2 2.45 21.1 2.6 21.05L6.75 20.25C7.35 20.15 7.9 19.7 8.1 19.1C8.3 18.45 8.6 17.8 8.9 17.2C9.15 16.65 9.1 15.95 8.75 15.45Z"/>
<path d="M31.2 23.6C31.5 23.6 31.7 23.4 31.7 23.1C31.7 22.35 32.3 21.75 33.05 21.75C33.35 21.75 33.55 21.55 33.55 21.25C33.55 20.95 33.35 20.75 33.05 20.75C31.75 20.75 30.7 21.8 30.7 23.1C30.7 23.35 30.95 23.6 31.2 23.6ZM29.7 19.8C30 19.8 30.2 19.6 30.2 19.3C30.2 19 30 18.8 29.7 18.8C28.95 18.8 28.35 18.2 28.35 17.45C28.35 17.15 28.15 16.95 27.85 16.95C27.55 16.95 27.35 17.15 27.35 17.45C27.35 18.75 28.4 19.8 29.7 19.8ZM29.7 30.9C28.4 30.9 27.35 31.95 27.35 33.25C27.35 33.55 27.55 33.75 27.85 33.75C28.15 33.75 28.35 33.55 28.35 33.25C28.35 32.5 28.95 31.9 29.7 31.9C30 31.9 30.2 31.7 30.2 31.4C30.2 31.1 30 30.9 29.7 30.9ZM32.9 29.45C33.2 29.45 33.4 29.25 33.4 28.95C33.4 28.65 33.2 28.45 32.9 28.45C32.15 28.45 31.55 27.85 31.55 27.1C31.55 26.8 31.35 26.6 31.05 26.6C30.75 26.6 30.55 26.8 30.55 27.1C30.55 28.35 31.6 29.45 32.9 29.45Z"/>
<path d="M12.8 28.8C12.7 29.2 12.65 29.6 12.65 30C12.65 32.5 14.8 34.5 17.35 34.3C18.05 35.8 19.55 36.75 21.25 36.75C22.9 36.75 24.35 35.8 25.05 34.45C25.75 35.8 27.2 36.75 28.85 36.75C30.5 36.75 32.05 35.8 32.75 34.3C35.3 34.5 37.45 32.5 37.45 30C37.45 29.6 37.4 29.2 37.3 28.8C38.6 28.05 39.45 26.6 39.45 25.05C39.45 23.5 38.65 22.1 37.35 21.35C37.45 21 37.45 20.7 37.45 20.35C37.45 17.95 35.5 16.05 33.15 16.05H32.9C32.25 14.4 30.65 13.3 28.85 13.3C27.2 13.3 25.75 14.25 25.05 15.6C24.35 14.25 22.9 13.3 21.25 13.3C19.45 13.3 17.85 14.4 17.2 16.05H16.95C14.55 16.05 12.65 18 12.65 20.35C12.65 20.7 12.7 21.05 12.75 21.35C11.45 22.1 10.65 23.55 10.65 25.05C10.65 26.6 11.45 28.05 12.8 28.8ZM28.8 14.25C30.3 14.25 31.6 15.25 32 16.7C32.05 16.95 32.3 17.1 32.55 17.05C32.7 17 32.9 17 33.05 17C34.9 17 36.35 18.5 36.35 20.3C36.35 20.7 36.3 21.05 36.15 21.4C36.05 21.65 36.2 21.9 36.4 22C37.55 22.55 38.3 23.7 38.3 25C38.3 26.3 37.55 27.5 36.35 28.05C36.1 28.15 36 28.45 36.1 28.7C36.25 29.1 36.35 29.5 36.35 29.95C36.35 31.95 34.5 33.6 32.45 33.2C32.2 33.15 31.95 33.3 31.9 33.5C31.45 34.8 30.2 35.7 28.8 35.7C26.95 35.7 25.5 34.2 25.5 32.4V22.25C25.95 22.6 26.55 22.85 27.3 22.85C27.7 22.85 28.1 22.8 28.5 22.65C28.75 22.55 28.9 22.25 28.8 22C28.7 21.75 28.4 21.6 28.15 21.7C26.6 22.25 25.7 21.25 25.45 20.9V17.6C25.5 15.75 27 14.25 28.8 14.25ZM13.55 22.05C13.8 21.95 13.9 21.65 13.8 21.45C13.7 21.1 13.6 20.75 13.6 20.35C13.6 18.5 15.1 17.05 16.9 17.05C17.05 17.05 17.25 17.05 17.4 17.1C17.65 17.15 17.9 17 17.95 16.75C18.35 15.3 19.65 14.3 21.15 14.3C23 14.3 24.45 15.8 24.45 17.6V27.85C23.7 27.4 22.6 27.15 21.35 27.8C21.1 27.95 21 28.25 21.15 28.5C21.3 28.75 21.6 28.85 21.85 28.7C23.25 27.95 24.15 28.8 24.45 29.15V32.45C24.45 34.3 22.95 35.75 21.15 35.75C19.75 35.75 18.5 34.85 18.05 33.55C18 33.35 17.8 33.2 17.6 33.2H17.5C15.45 33.6 13.6 31.95 13.6 29.95C13.6 29.5 13.7 29.1 13.85 28.7C13.95 28.45 13.85 28.15 13.6 28.05C12.4 27.5 11.65 26.35 11.65 25C11.65 23.8 12.4 22.6 13.55 22.05Z"/>
<path d="M16.9 21.7C17.65 21.7 18.25 22.3 18.25 23.05C18.25 23.35 18.45 23.55 18.75 23.55C19.05 23.55 19.25 23.35 19.25 23.05C19.25 21.75 18.2 20.7 16.9 20.7C16.6 20.7 16.4 20.9 16.4 21.2C16.4 21.5 16.65 21.7 16.9 21.7ZM20.3 19.8C21.6 19.8 22.65 18.75 22.65 17.45C22.65 17.15 22.45 16.95 22.15 16.95C21.85 16.95 21.65 17.15 21.65 17.45C21.65 18.2 21.05 18.8 20.3 18.8C20 18.8 19.8 19 19.8 19.3C19.8 19.6 20 19.8 20.3 19.8ZM20.3 31.9C21.05 31.9 21.65 32.5 21.65 33.25C21.65 33.55 21.85 33.75 22.15 33.75C22.45 33.75 22.65 33.55 22.65 33.25C22.65 31.95 21.6 30.9 20.3 30.9C20 30.9 19.8 31.1 19.8 31.4C19.8 31.7 20 31.9 20.3 31.9ZM18.45 27.05C18.45 27.8 17.85 28.4 17.1 28.4C16.8 28.4 16.6 28.6 16.6 28.9C16.6 29.2 16.8 29.4 17.1 29.4C18.4 29.4 19.45 28.35 19.45 27.05C19.45 26.75 19.25 26.55 18.95 26.55C18.65 26.55 18.45 26.8 18.45 27.05Z"/>
</mask>
<path d="M7.15 18.8C7.05 19.05 6.85 19.25 6.55 19.3L2.4 20.1C1.85 20.2 1.4 20.65 1.3 21.2C1.1 22.45 1 23.75 1 25C1 26.25 1.1 27.55 1.3 28.8C1.4 29.35 1.85 29.8 2.4 29.9L6.55 30.7C6.85 30.75 7.1 31 7.15 31.25C7.3 31.85 7.55 32.45 7.95 33.15C8.1 33.4 8.05 33.7 7.9 33.95L5.5 37.45C5.2 37.95 5.2 38.55 5.5 39C7 41.1 8.8 42.9 10.9 44.4C11.35 44.75 12 44.75 12.45 44.4L15.95 42C16.2 41.85 16.45 41.85 16.7 41.95C17.35 42.25 18.05 42.55 18.7 42.8C18.95 42.9 19.15 43.1 19.2 43.4L20 47.55C20.1 48.1 20.55 48.55 21.1 48.65C22.35 48.85 23.65 48.95 24.9 48.95C26.15 48.95 27.45 48.85 28.7 48.65C29.25 48.55 29.7 48.1 29.8 47.55L30.6 43.4C30.65 43.1 30.85 42.9 31.1 42.8C31.8 42.55 32.45 42.3 33.1 41.95C33.35 41.85 33.6 41.85 33.85 42L37.35 44.4C37.85 44.7 38.45 44.7 38.9 44.4C41 42.9 42.8 41.1 44.3 39C44.65 38.55 44.65 37.9 44.3 37.45L41.9 33.95C41.75 33.75 41.75 33.45 41.85 33.2C42.15 32.55 42.45 31.85 42.7 31.15C42.8 30.9 43 30.7 43.3 30.65L47.45 29.85C48 29.75 48.45 29.3 48.55 28.75C48.75 27.5 48.85 26.2 48.85 24.95C48.85 23.7 48.75 22.4 48.55 21.15C48.45 20.6 48 20.15 47.45 20.05L43.3 19.25C43.05 19.2 42.8 19 42.7 18.75C42.45 18.05 42.2 17.4 41.85 16.75C41.75 16.5 41.75 16.2 41.9 16L44.3 12.5C44.6 12.05 44.6 11.4 44.3 10.95C42.8 8.85 41 7.05 38.9 5.55C38.45 5.2 37.8 5.2 37.35 5.55L33.85 7.95C33.65 8.1 33.35 8.15 33.1 8C32.45 7.7 31.75 7.4 31.1 7.15C30.85 7.05 30.65 6.85 30.6 6.55L29.8 2.4C29.7 1.85 29.25 1.4 28.7 1.3C26.2 0.9 23.6 0.9 21.1 1.3C20.55 1.4 20.1 1.85 20 2.4L19.2 6.55C19.15 6.85 18.95 7.05 18.7 7.15C18 7.4 17.35 7.65 16.7 8C16.45 8.1 16.2 8.1 15.95 7.95L12.45 5.55C11.95 5.25 11.35 5.25 10.9 5.55C8.8 7.05 7 8.85 5.5 10.95C5.15 11.4 5.15 12.05 5.5 12.5L7.9 16C8.05 16.2 8.1 16.5 7.95 16.75C7.65 17.45 7.4 18.1 7.15 18.8ZM8.75 15.45L6.35 11.95C6.25 11.8 6.25 11.65 6.35 11.55C7.8 9.55 9.55 7.8 11.5 6.4C11.6 6.3 11.8 6.3 11.9 6.4L15.4 8.8C15.9 9.15 16.6 9.2 17.15 8.95C17.75 8.65 18.4 8.4 19.05 8.15C19.65 7.95 20.1 7.45 20.2 6.8L21 2.65C21.05 2.5 21.15 2.4 21.3 2.35C23.7 1.95 26.2 1.95 28.6 2.35C28.75 2.35 28.85 2.5 28.9 2.65L29.7 6.8C29.8 7.45 30.25 7.95 30.85 8.15C31.5 8.35 32.15 8.65 32.75 8.95C33.3 9.2 34 9.15 34.5 8.8L38 6.4C38.15 6.3 38.3 6.3 38.4 6.4C40.4 7.85 42.15 9.6 43.55 11.55C43.65 11.65 43.65 11.85 43.55 11.95L41.15 15.45C40.8 15.95 40.75 16.65 41 17.2C41.3 17.85 41.6 18.5 41.8 19.1C42 19.7 42.5 20.15 43.15 20.25L47.3 21.05C47.45 21.1 47.55 21.2 47.6 21.35C47.8 22.55 47.9 23.8 47.9 25C47.9 26.2 47.8 27.45 47.6 28.65C47.6 28.8 47.45 28.9 47.3 28.95L43.15 29.75C42.5 29.85 42 30.3 41.8 30.9C41.6 31.55 41.3 32.2 41 32.8C40.7 33.35 40.75 34.05 41.15 34.55L43.55 38.05C43.65 38.2 43.65 38.35 43.55 38.45C42.1 40.45 40.35 42.2 38.4 43.6C38.3 43.7 38.1 43.7 38 43.6L34.5 41.2C34 40.85 33.3 40.8 32.75 41.05C32.1 41.35 31.5 41.6 30.85 41.85C30.25 42.05 29.8 42.55 29.7 43.2L28.9 47.35C28.85 47.5 28.75 47.6 28.6 47.65C26.2 48.05 23.7 48.05 21.3 47.65C21.15 47.65 21.05 47.5 21 47.35L20.2 43.2C20.1 42.55 19.65 42.05 19.05 41.85C18.4 41.65 17.75 41.35 17.15 41.05C16.9 40.95 16.65 40.9 16.4 40.9C16.05 40.9 15.7 41 15.4 41.2L11.9 43.6C11.75 43.7 11.6 43.7 11.5 43.6C9.5 42.15 7.75 40.4 6.35 38.45C6.25 38.35 6.25 38.15 6.35 38.05L8.75 34.55C9.15 34 9.15 33.25 8.85 32.7C8.5 32.1 8.3 31.55 8.15 31.05C8 30.4 7.45 29.85 6.75 29.75L2.6 28.95C2.45 28.9 2.35 28.8 2.3 28.65C2.1 27.45 2 26.2 2 25C2 23.8 2.1 22.55 2.3 21.35C2.3 21.2 2.45 21.1 2.6 21.05L6.75 20.25C7.35 20.15 7.9 19.7 8.1 19.1C8.3 18.45 8.6 17.8 8.9 17.2C9.15 16.65 9.1 15.95 8.75 15.45Z" fill="black"/>
<path d="M31.2 23.6C31.5 23.6 31.7 23.4 31.7 23.1C31.7 22.35 32.3 21.75 33.05 21.75C33.35 21.75 33.55 21.55 33.55 21.25C33.55 20.95 33.35 20.75 33.05 20.75C31.75 20.75 30.7 21.8 30.7 23.1C30.7 23.35 30.95 23.6 31.2 23.6ZM29.7 19.8C30 19.8 30.2 19.6 30.2 19.3C30.2 19 30 18.8 29.7 18.8C28.95 18.8 28.35 18.2 28.35 17.45C28.35 17.15 28.15 16.95 27.85 16.95C27.55 16.95 27.35 17.15 27.35 17.45C27.35 18.75 28.4 19.8 29.7 19.8ZM29.7 30.9C28.4 30.9 27.35 31.95 27.35 33.25C27.35 33.55 27.55 33.75 27.85 33.75C28.15 33.75 28.35 33.55 28.35 33.25C28.35 32.5 28.95 31.9 29.7 31.9C30 31.9 30.2 31.7 30.2 31.4C30.2 31.1 30 30.9 29.7 30.9ZM32.9 29.45C33.2 29.45 33.4 29.25 33.4 28.95C33.4 28.65 33.2 28.45 32.9 28.45C32.15 28.45 31.55 27.85 31.55 27.1C31.55 26.8 31.35 26.6 31.05 26.6C30.75 26.6 30.55 26.8 30.55 27.1C30.55 28.35 31.6 29.45 32.9 29.45Z" fill="black"/>
<path d="M12.8 28.8C12.7 29.2 12.65 29.6 12.65 30C12.65 32.5 14.8 34.5 17.35 34.3C18.05 35.8 19.55 36.75 21.25 36.75C22.9 36.75 24.35 35.8 25.05 34.45C25.75 35.8 27.2 36.75 28.85 36.75C30.5 36.75 32.05 35.8 32.75 34.3C35.3 34.5 37.45 32.5 37.45 30C37.45 29.6 37.4 29.2 37.3 28.8C38.6 28.05 39.45 26.6 39.45 25.05C39.45 23.5 38.65 22.1 37.35 21.35C37.45 21 37.45 20.7 37.45 20.35C37.45 17.95 35.5 16.05 33.15 16.05H32.9C32.25 14.4 30.65 13.3 28.85 13.3C27.2 13.3 25.75 14.25 25.05 15.6C24.35 14.25 22.9 13.3 21.25 13.3C19.45 13.3 17.85 14.4 17.2 16.05H16.95C14.55 16.05 12.65 18 12.65 20.35C12.65 20.7 12.7 21.05 12.75 21.35C11.45 22.1 10.65 23.55 10.65 25.05C10.65 26.6 11.45 28.05 12.8 28.8ZM28.8 14.25C30.3 14.25 31.6 15.25 32 16.7C32.05 16.95 32.3 17.1 32.55 17.05C32.7 17 32.9 17 33.05 17C34.9 17 36.35 18.5 36.35 20.3C36.35 20.7 36.3 21.05 36.15 21.4C36.05 21.65 36.2 21.9 36.4 22C37.55 22.55 38.3 23.7 38.3 25C38.3 26.3 37.55 27.5 36.35 28.05C36.1 28.15 36 28.45 36.1 28.7C36.25 29.1 36.35 29.5 36.35 29.95C36.35 31.95 34.5 33.6 32.45 33.2C32.2 33.15 31.95 33.3 31.9 33.5C31.45 34.8 30.2 35.7 28.8 35.7C26.95 35.7 25.5 34.2 25.5 32.4V22.25C25.95 22.6 26.55 22.85 27.3 22.85C27.7 22.85 28.1 22.8 28.5 22.65C28.75 22.55 28.9 22.25 28.8 22C28.7 21.75 28.4 21.6 28.15 21.7C26.6 22.25 25.7 21.25 25.45 20.9V17.6C25.5 15.75 27 14.25 28.8 14.25ZM13.55 22.05C13.8 21.95 13.9 21.65 13.8 21.45C13.7 21.1 13.6 20.75 13.6 20.35C13.6 18.5 15.1 17.05 16.9 17.05C17.05 17.05 17.25 17.05 17.4 17.1C17.65 17.15 17.9 17 17.95 16.75C18.35 15.3 19.65 14.3 21.15 14.3C23 14.3 24.45 15.8 24.45 17.6V27.85C23.7 27.4 22.6 27.15 21.35 27.8C21.1 27.95 21 28.25 21.15 28.5C21.3 28.75 21.6 28.85 21.85 28.7C23.25 27.95 24.15 28.8 24.45 29.15V32.45C24.45 34.3 22.95 35.75 21.15 35.75C19.75 35.75 18.5 34.85 18.05 33.55C18 33.35 17.8 33.2 17.6 33.2H17.5C15.45 33.6 13.6 31.95 13.6 29.95C13.6 29.5 13.7 29.1 13.85 28.7C13.95 28.45 13.85 28.15 13.6 28.05C12.4 27.5 11.65 26.35 11.65 25C11.65 23.8 12.4 22.6 13.55 22.05Z" fill="black"/>
<path d="M16.9 21.7C17.65 21.7 18.25 22.3 18.25 23.05C18.25 23.35 18.45 23.55 18.75 23.55C19.05 23.55 19.25 23.35 19.25 23.05C19.25 21.75 18.2 20.7 16.9 20.7C16.6 20.7 16.4 20.9 16.4 21.2C16.4 21.5 16.65 21.7 16.9 21.7ZM20.3 19.8C21.6 19.8 22.65 18.75 22.65 17.45C22.65 17.15 22.45 16.95 22.15 16.95C21.85 16.95 21.65 17.15 21.65 17.45C21.65 18.2 21.05 18.8 20.3 18.8C20 18.8 19.8 19 19.8 19.3C19.8 19.6 20 19.8 20.3 19.8ZM20.3 31.9C21.05 31.9 21.65 32.5 21.65 33.25C21.65 33.55 21.85 33.75 22.15 33.75C22.45 33.75 22.65 33.55 22.65 33.25C22.65 31.95 21.6 30.9 20.3 30.9C20 30.9 19.8 31.1 19.8 31.4C19.8 31.7 20 31.9 20.3 31.9ZM18.45 27.05C18.45 27.8 17.85 28.4 17.1 28.4C16.8 28.4 16.6 28.6 16.6 28.9C16.6 29.2 16.8 29.4 17.1 29.4C18.4 29.4 19.45 28.35 19.45 27.05C19.45 26.75 19.25 26.55 18.95 26.55C18.65 26.55 18.45 26.8 18.45 27.05Z" fill="black"/>
<path d="M7.15 18.8C7.05 19.05 6.85 19.25 6.55 19.3L2.4 20.1C1.85 20.2 1.4 20.65 1.3 21.2C1.1 22.45 1 23.75 1 25C1 26.25 1.1 27.55 1.3 28.8C1.4 29.35 1.85 29.8 2.4 29.9L6.55 30.7C6.85 30.75 7.1 31 7.15 31.25C7.3 31.85 7.55 32.45 7.95 33.15C8.1 33.4 8.05 33.7 7.9 33.95L5.5 37.45C5.2 37.95 5.2 38.55 5.5 39C7 41.1 8.8 42.9 10.9 44.4C11.35 44.75 12 44.75 12.45 44.4L15.95 42C16.2 41.85 16.45 41.85 16.7 41.95C17.35 42.25 18.05 42.55 18.7 42.8C18.95 42.9 19.15 43.1 19.2 43.4L20 47.55C20.1 48.1 20.55 48.55 21.1 48.65C22.35 48.85 23.65 48.95 24.9 48.95C26.15 48.95 27.45 48.85 28.7 48.65C29.25 48.55 29.7 48.1 29.8 47.55L30.6 43.4C30.65 43.1 30.85 42.9 31.1 42.8C31.8 42.55 32.45 42.3 33.1 41.95C33.35 41.85 33.6 41.85 33.85 42L37.35 44.4C37.85 44.7 38.45 44.7 38.9 44.4C41 42.9 42.8 41.1 44.3 39C44.65 38.55 44.65 37.9 44.3 37.45L41.9 33.95C41.75 33.75 41.75 33.45 41.85 33.2C42.15 32.55 42.45 31.85 42.7 31.15C42.8 30.9 43 30.7 43.3 30.65L47.45 29.85C48 29.75 48.45 29.3 48.55 28.75C48.75 27.5 48.85 26.2 48.85 24.95C48.85 23.7 48.75 22.4 48.55 21.15C48.45 20.6 48 20.15 47.45 20.05L43.3 19.25C43.05 19.2 42.8 19 42.7 18.75C42.45 18.05 42.2 17.4 41.85 16.75C41.75 16.5 41.75 16.2 41.9 16L44.3 12.5C44.6 12.05 44.6 11.4 44.3 10.95C42.8 8.85 41 7.05 38.9 5.55C38.45 5.2 37.8 5.2 37.35 5.55L33.85 7.95C33.65 8.1 33.35 8.15 33.1 8C32.45 7.7 31.75 7.4 31.1 7.15C30.85 7.05 30.65 6.85 30.6 6.55L29.8 2.4C29.7 1.85 29.25 1.4 28.7 1.3C26.2 0.9 23.6 0.9 21.1 1.3C20.55 1.4 20.1 1.85 20 2.4L19.2 6.55C19.15 6.85 18.95 7.05 18.7 7.15C18 7.4 17.35 7.65 16.7 8C16.45 8.1 16.2 8.1 15.95 7.95L12.45 5.55C11.95 5.25 11.35 5.25 10.9 5.55C8.8 7.05 7 8.85 5.5 10.95C5.15 11.4 5.15 12.05 5.5 12.5L7.9 16C8.05 16.2 8.1 16.5 7.95 16.75C7.65 17.45 7.4 18.1 7.15 18.8ZM8.75 15.45L6.35 11.95C6.25 11.8 6.25 11.65 6.35 11.55C7.8 9.55 9.55 7.8 11.5 6.4C11.6 6.3 11.8 6.3 11.9 6.4L15.4 8.8C15.9 9.15 16.6 9.2 17.15 8.95C17.75 8.65 18.4 8.4 19.05 8.15C19.65 7.95 20.1 7.45 20.2 6.8L21 2.65C21.05 2.5 21.15 2.4 21.3 2.35C23.7 1.95 26.2 1.95 28.6 2.35C28.75 2.35 28.85 2.5 28.9 2.65L29.7 6.8C29.8 7.45 30.25 7.95 30.85 8.15C31.5 8.35 32.15 8.65 32.75 8.95C33.3 9.2 34 9.15 34.5 8.8L38 6.4C38.15 6.3 38.3 6.3 38.4 6.4C40.4 7.85 42.15 9.6 43.55 11.55C43.65 11.65 43.65 11.85 43.55 11.95L41.15 15.45C40.8 15.95 40.75 16.65 41 17.2C41.3 17.85 41.6 18.5 41.8 19.1C42 19.7 42.5 20.15 43.15 20.25L47.3 21.05C47.45 21.1 47.55 21.2 47.6 21.35C47.8 22.55 47.9 23.8 47.9 25C47.9 26.2 47.8 27.45 47.6 28.65C47.6 28.8 47.45 28.9 47.3 28.95L43.15 29.75C42.5 29.85 42 30.3 41.8 30.9C41.6 31.55 41.3 32.2 41 32.8C40.7 33.35 40.75 34.05 41.15 34.55L43.55 38.05C43.65 38.2 43.65 38.35 43.55 38.45C42.1 40.45 40.35 42.2 38.4 43.6C38.3 43.7 38.1 43.7 38 43.6L34.5 41.2C34 40.85 33.3 40.8 32.75 41.05C32.1 41.35 31.5 41.6 30.85 41.85C30.25 42.05 29.8 42.55 29.7 43.2L28.9 47.35C28.85 47.5 28.75 47.6 28.6 47.65C26.2 48.05 23.7 48.05 21.3 47.65C21.15 47.65 21.05 47.5 21 47.35L20.2 43.2C20.1 42.55 19.65 42.05 19.05 41.85C18.4 41.65 17.75 41.35 17.15 41.05C16.9 40.95 16.65 40.9 16.4 40.9C16.05 40.9 15.7 41 15.4 41.2L11.9 43.6C11.75 43.7 11.6 43.7 11.5 43.6C9.5 42.15 7.75 40.4 6.35 38.45C6.25 38.35 6.25 38.15 6.35 38.05L8.75 34.55C9.15 34 9.15 33.25 8.85 32.7C8.5 32.1 8.3 31.55 8.15 31.05C8 30.4 7.45 29.85 6.75 29.75L2.6 28.95C2.45 28.9 2.35 28.8 2.3 28.65C2.1 27.45 2 26.2 2 25C2 23.8 2.1 22.55 2.3 21.35C2.3 21.2 2.45 21.1 2.6 21.05L6.75 20.25C7.35 20.15 7.9 19.7 8.1 19.1C8.3 18.45 8.6 17.8 8.9 17.2C9.15 16.65 9.1 15.95 8.75 15.45Z" stroke="black" stroke-width="0.260417" mask="url(#path-1-outside-1_535_1600)"/>
<path d="M31.2 23.6C31.5 23.6 31.7 23.4 31.7 23.1C31.7 22.35 32.3 21.75 33.05 21.75C33.35 21.75 33.55 21.55 33.55 21.25C33.55 20.95 33.35 20.75 33.05 20.75C31.75 20.75 30.7 21.8 30.7 23.1C30.7 23.35 30.95 23.6 31.2 23.6ZM29.7 19.8C30 19.8 30.2 19.6 30.2 19.3C30.2 19 30 18.8 29.7 18.8C28.95 18.8 28.35 18.2 28.35 17.45C28.35 17.15 28.15 16.95 27.85 16.95C27.55 16.95 27.35 17.15 27.35 17.45C27.35 18.75 28.4 19.8 29.7 19.8ZM29.7 30.9C28.4 30.9 27.35 31.95 27.35 33.25C27.35 33.55 27.55 33.75 27.85 33.75C28.15 33.75 28.35 33.55 28.35 33.25C28.35 32.5 28.95 31.9 29.7 31.9C30 31.9 30.2 31.7 30.2 31.4C30.2 31.1 30 30.9 29.7 30.9ZM32.9 29.45C33.2 29.45 33.4 29.25 33.4 28.95C33.4 28.65 33.2 28.45 32.9 28.45C32.15 28.45 31.55 27.85 31.55 27.1C31.55 26.8 31.35 26.6 31.05 26.6C30.75 26.6 30.55 26.8 30.55 27.1C30.55 28.35 31.6 29.45 32.9 29.45Z" stroke="black" stroke-width="0.260417" mask="url(#path-1-outside-1_535_1600)"/>
<path d="M12.8 28.8C12.7 29.2 12.65 29.6 12.65 30C12.65 32.5 14.8 34.5 17.35 34.3C18.05 35.8 19.55 36.75 21.25 36.75C22.9 36.75 24.35 35.8 25.05 34.45C25.75 35.8 27.2 36.75 28.85 36.75C30.5 36.75 32.05 35.8 32.75 34.3C35.3 34.5 37.45 32.5 37.45 30C37.45 29.6 37.4 29.2 37.3 28.8C38.6 28.05 39.45 26.6 39.45 25.05C39.45 23.5 38.65 22.1 37.35 21.35C37.45 21 37.45 20.7 37.45 20.35C37.45 17.95 35.5 16.05 33.15 16.05H32.9C32.25 14.4 30.65 13.3 28.85 13.3C27.2 13.3 25.75 14.25 25.05 15.6C24.35 14.25 22.9 13.3 21.25 13.3C19.45 13.3 17.85 14.4 17.2 16.05H16.95C14.55 16.05 12.65 18 12.65 20.35C12.65 20.7 12.7 21.05 12.75 21.35C11.45 22.1 10.65 23.55 10.65 25.05C10.65 26.6 11.45 28.05 12.8 28.8ZM28.8 14.25C30.3 14.25 31.6 15.25 32 16.7C32.05 16.95 32.3 17.1 32.55 17.05C32.7 17 32.9 17 33.05 17C34.9 17 36.35 18.5 36.35 20.3C36.35 20.7 36.3 21.05 36.15 21.4C36.05 21.65 36.2 21.9 36.4 22C37.55 22.55 38.3 23.7 38.3 25C38.3 26.3 37.55 27.5 36.35 28.05C36.1 28.15 36 28.45 36.1 28.7C36.25 29.1 36.35 29.5 36.35 29.95C36.35 31.95 34.5 33.6 32.45 33.2C32.2 33.15 31.95 33.3 31.9 33.5C31.45 34.8 30.2 35.7 28.8 35.7C26.95 35.7 25.5 34.2 25.5 32.4V22.25C25.95 22.6 26.55 22.85 27.3 22.85C27.7 22.85 28.1 22.8 28.5 22.65C28.75 22.55 28.9 22.25 28.8 22C28.7 21.75 28.4 21.6 28.15 21.7C26.6 22.25 25.7 21.25 25.45 20.9V17.6C25.5 15.75 27 14.25 28.8 14.25ZM13.55 22.05C13.8 21.95 13.9 21.65 13.8 21.45C13.7 21.1 13.6 20.75 13.6 20.35C13.6 18.5 15.1 17.05 16.9 17.05C17.05 17.05 17.25 17.05 17.4 17.1C17.65 17.15 17.9 17 17.95 16.75C18.35 15.3 19.65 14.3 21.15 14.3C23 14.3 24.45 15.8 24.45 17.6V27.85C23.7 27.4 22.6 27.15 21.35 27.8C21.1 27.95 21 28.25 21.15 28.5C21.3 28.75 21.6 28.85 21.85 28.7C23.25 27.95 24.15 28.8 24.45 29.15V32.45C24.45 34.3 22.95 35.75 21.15 35.75C19.75 35.75 18.5 34.85 18.05 33.55C18 33.35 17.8 33.2 17.6 33.2H17.5C15.45 33.6 13.6 31.95 13.6 29.95C13.6 29.5 13.7 29.1 13.85 28.7C13.95 28.45 13.85 28.15 13.6 28.05C12.4 27.5 11.65 26.35 11.65 25C11.65 23.8 12.4 22.6 13.55 22.05Z" stroke="black" stroke-width="0.260417" mask="url(#path-1-outside-1_535_1600)"/>
<path d="M16.9 21.7C17.65 21.7 18.25 22.3 18.25 23.05C18.25 23.35 18.45 23.55 18.75 23.55C19.05 23.55 19.25 23.35 19.25 23.05C19.25 21.75 18.2 20.7 16.9 20.7C16.6 20.7 16.4 20.9 16.4 21.2C16.4 21.5 16.65 21.7 16.9 21.7ZM20.3 19.8C21.6 19.8 22.65 18.75 22.65 17.45C22.65 17.15 22.45 16.95 22.15 16.95C21.85 16.95 21.65 17.15 21.65 17.45C21.65 18.2 21.05 18.8 20.3 18.8C20 18.8 19.8 19 19.8 19.3C19.8 19.6 20 19.8 20.3 19.8ZM20.3 31.9C21.05 31.9 21.65 32.5 21.65 33.25C21.65 33.55 21.85 33.75 22.15 33.75C22.45 33.75 22.65 33.55 22.65 33.25C22.65 31.95 21.6 30.9 20.3 30.9C20 30.9 19.8 31.1 19.8 31.4C19.8 31.7 20 31.9 20.3 31.9ZM18.45 27.05C18.45 27.8 17.85 28.4 17.1 28.4C16.8 28.4 16.6 28.6 16.6 28.9C16.6 29.2 16.8 29.4 17.1 29.4C18.4 29.4 19.45 28.35 19.45 27.05C19.45 26.75 19.25 26.55 18.95 26.55C18.65 26.55 18.45 26.8 18.45 27.05Z" stroke="black" stroke-width="0.260417" mask="url(#path-1-outside-1_535_1600)"/>
</g>
</g>
</svg>
