<svg width="50" height="50" viewBox="0 0 50 50" fill="none" xmlns="http://www.w3.org/2000/svg">
<g id="Training" clip-path="url(#clip0_535_1557)">
<path id="Vector" fill-rule="evenodd" clip-rule="evenodd" d="M36.8164 50H13.1836C10.6445 50 8.69141 47.9492 8.69141 45.5078V11.4258C8.69141 8.88672 10.6445 6.93359 13.1836 6.93359H15.7227V3.71094C15.7227 3.41797 16.0156 3.125 16.3086 3.125H19.7266L20.4102 0.488281C20.5078 0.195312 20.8008 0 20.9961 0H29.0039C29.1992 0 29.4922 0.195312 29.5898 0.488281L30.2734 3.125H33.6914C33.9844 3.125 34.2773 3.41797 34.2773 3.71094V6.93359H36.8164C39.3555 6.93359 41.3086 8.88672 41.3086 11.4258V45.5078C41.3086 47.9492 39.3555 50 36.8164 50ZM19.4336 4.29688H16.8945V9.57031H33.1055V4.29688H30.5664L31.25 7.12891C31.3477 7.51953 31.1523 7.91016 30.7617 7.91016H19.2383C18.8477 7.91016 18.6523 7.51953 18.75 7.12891L19.4336 4.29688ZM29.1992 3.90625L28.5156 1.17188H21.4844L20.0195 6.73828H29.9805L29.1992 3.90625ZM16.1133 45.1172C12.9883 45.1172 13.4766 45.5078 13.4766 42.3828C13.4766 42.0898 13.6719 41.7969 14.0625 41.7969C17.1875 41.7969 16.6992 41.4062 16.6992 44.5312C16.6992 44.8242 16.5039 45.1172 16.1133 45.1172ZM14.6484 43.9453H15.5273V42.9688H14.6484V43.9453ZM34.375 44.043H18.9453C18.1641 44.043 18.1641 42.8711 18.9453 42.8711H34.375C35.1562 42.8711 35.1562 44.043 34.375 44.043ZM16.1133 39.0625C12.9883 39.0625 13.4766 39.5508 13.4766 36.4258C13.4766 36.0352 13.6719 35.8398 14.0625 35.8398C17.1875 35.8398 16.6992 35.3516 16.6992 38.4766C16.6992 38.7695 16.5039 39.0625 16.1133 39.0625ZM14.6484 37.8906H15.5273V37.0117H14.6484V37.8906ZM34.375 37.9883H18.9453C18.1641 37.9883 18.1641 36.8164 18.9453 36.8164H34.375C35.1562 36.8164 35.1562 37.9883 34.375 37.9883ZM16.1133 33.1055C12.9883 33.1055 13.4766 33.4961 13.4766 30.3711C13.4766 30.0781 13.6719 29.7852 14.0625 29.7852C17.1875 29.7852 16.6992 29.3945 16.6992 32.5195C16.6992 32.8125 16.5039 33.1055 16.1133 33.1055ZM14.6484 31.9336H15.5273V30.957H14.6484V31.9336ZM34.375 32.0312H18.9453C18.1641 32.0312 18.1641 30.8594 18.9453 30.8594H34.375C35.1562 30.8594 35.1562 32.0312 34.375 32.0312ZM16.1133 27.0508C12.9883 27.0508 13.4766 27.5391 13.4766 24.4141C13.4766 24.1211 13.6719 23.8281 14.0625 23.8281C17.1875 23.8281 16.6992 23.3398 16.6992 26.4648C16.6992 26.8555 16.5039 27.0508 16.1133 27.0508ZM14.6484 25.8789H15.5273V25H14.6484V25.8789ZM34.375 26.0742H18.9453C18.1641 26.0742 18.1641 24.9023 18.9453 24.9023H34.375C35.1562 24.9023 35.1562 26.0742 34.375 26.0742ZM16.1133 21.0938C12.9883 21.0938 13.4766 21.4844 13.4766 18.3594C13.4766 18.0664 13.6719 17.7734 14.0625 17.7734C17.1875 17.7734 16.6992 17.3828 16.6992 20.5078C16.6992 20.8008 16.5039 21.0938 16.1133 21.0938ZM14.6484 19.9219H15.5273V18.9453H14.6484V19.9219ZM34.375 20.0195H18.9453C18.1641 20.0195 18.1641 18.8477 18.9453 18.8477H34.375C35.1562 18.8477 35.1562 20.0195 34.375 20.0195ZM16.1133 15.1367C12.9883 15.1367 13.4766 15.5273 13.4766 12.4023C13.4766 12.1094 13.6719 11.8164 14.0625 11.8164C17.1875 11.8164 16.6992 11.4258 16.6992 14.5508C16.6992 14.8438 16.5039 15.1367 16.1133 15.1367ZM14.6484 13.9648H15.5273V12.9883H14.6484V13.9648ZM34.375 14.0625H18.9453C18.1641 14.0625 18.1641 12.8906 18.9453 12.8906H34.375C35.1562 12.8906 35.1562 14.0625 34.375 14.0625ZM15.7227 8.10547H13.1836C11.3281 8.10547 9.86328 9.57031 9.86328 11.4258V45.5078C9.86328 47.2656 11.3281 48.8281 13.1836 48.8281H36.8164C38.6719 48.8281 40.1367 47.2656 40.1367 45.5078V11.4258C40.1367 9.57031 38.6719 8.10547 36.8164 8.10547H34.2773V9.57031H36.8164C37.8906 9.57031 38.7695 10.3516 38.7695 11.4258V45.5078C38.7695 46.4844 37.8906 47.3633 36.8164 47.3633H13.1836C12.1094 47.3633 11.2305 46.4844 11.2305 45.5078V11.4258C11.2305 10.3516 12.1094 9.57031 13.1836 9.57031H15.7227V8.10547ZM13.1836 10.7422C12.793 10.7422 12.4023 11.0352 12.4023 11.4258V45.5078C12.4023 45.8984 12.793 46.1914 13.1836 46.1914H36.8164C37.207 46.1914 37.5977 45.8984 37.5977 45.5078V11.4258C37.5977 11.0352 37.207 10.7422 36.8164 10.7422C28.9062 10.7422 21.0938 10.7422 13.1836 10.7422Z" fill="black"/>
</g>
<defs>
<clipPath id="clip0_535_1557">
<rect width="50" height="50" fill="white"/>
</clipPath>
</defs>
</svg>
