<svg width="50" height="50" viewBox="0 0 50 50" fill="none" xmlns="http://www.w3.org/2000/svg">
<g id="Health Care" clip-path="url(#clip0_535_1615)">
<g id="Vector">
<path d="M18.9226 17.7806H22.4312V21.2915C22.4312 21.4987 22.5135 21.6975 22.66 21.844C22.8065 21.9905 23.0052 22.0728 23.2124 22.0728H27.546C27.7532 22.0728 27.9519 21.9905 28.0984 21.844C28.245 21.6975 28.3273 21.4987 28.3273 21.2915V17.7806H31.8359C32.0431 17.7806 32.2418 17.6983 32.3883 17.5518C32.5348 17.4053 32.6171 17.2066 32.6171 16.9994V12.6673C32.6171 12.4601 32.5348 12.2614 32.3883 12.1149C32.2418 11.9684 32.0431 11.8861 31.8359 11.8861H28.3273V8.3767C28.3273 8.1695 28.245 7.97078 28.0984 7.82427C27.9519 7.67776 27.7532 7.59545 27.546 7.59545H23.2124C23.0052 7.59545 22.8065 7.67776 22.66 7.82427C22.5135 7.97078 22.4312 8.1695 22.4312 8.3767V11.8861H18.9226C18.7154 11.8861 18.5167 11.9684 18.3701 12.1149C18.2236 12.2614 18.1413 12.4601 18.1413 12.6673V16.9994C18.1413 17.2066 18.2236 17.4053 18.3701 17.5518C18.5167 17.6983 18.7154 17.7806 18.9226 17.7806ZM19.7038 13.4486H23.2124C23.4196 13.4486 23.6183 13.3663 23.7648 13.2198C23.9114 13.0732 23.9937 12.8745 23.9937 12.6673V9.15795H26.7648V12.6673C26.7648 12.8745 26.8471 13.0732 26.9936 13.2198C27.1401 13.3663 27.3388 13.4486 27.546 13.4486H31.0546V16.2181H27.546C27.3388 16.2181 27.1401 16.3004 26.9936 16.4469C26.8471 16.5934 26.7648 16.7922 26.7648 16.9994V20.5103H23.9937V16.9994C23.9937 16.7922 23.9114 16.5934 23.7648 16.4469C23.6183 16.3004 23.4196 16.2181 23.2124 16.2181H19.7038V13.4486ZM45.128 17.8283C44.7135 17.8283 44.3031 17.9102 43.9203 18.0694C43.5376 18.2286 43.1901 18.4619 42.8979 18.7559C42.6056 19.0499 42.3744 19.3987 42.2175 19.7824C42.0606 20.1661 41.981 20.577 41.9835 20.9915L42.0093 25.3439L39.6163 28.015C39.4771 27.6792 39.2723 27.3746 39.014 27.1189C38.7553 26.8582 38.4459 26.6534 38.1048 26.5173C37.7637 26.3811 37.3983 26.3165 37.0312 26.3275C36.6644 26.3333 36.3027 26.4135 35.9678 26.563C35.6329 26.7126 35.3318 26.9286 35.0827 27.1978L29.6874 32.9908C29.2592 33.448 29.0212 34.0511 29.0218 34.6775V44.5033H28.8726C28.6654 44.5033 28.4667 44.5856 28.3201 44.7321C28.1736 44.8786 28.0913 45.0773 28.0913 45.2845V49.3298C28.0913 49.537 28.1736 49.7357 28.3201 49.8822C28.4667 50.0288 28.6654 50.1111 28.8726 50.1111H38.482C38.6892 50.1111 38.8879 50.0288 39.0344 49.8822C39.1809 49.7357 39.2632 49.537 39.2632 49.3298V45.2845C39.2632 45.0773 39.1809 44.8786 39.0344 44.7321C38.8879 44.5856 38.6892 44.5033 38.482 44.5033H30.5851V34.6775C30.5851 34.4468 30.6728 34.2248 30.8304 34.0564L36.2273 28.2626C36.3345 28.1474 36.4639 28.0549 36.6076 27.9908C36.7514 27.9266 36.9066 27.8921 37.064 27.8892C37.3798 27.8935 37.6829 28.0145 37.9148 28.229C38.1304 28.4415 38.2556 28.7292 38.2639 29.0318C38.2722 29.3344 38.163 29.6285 37.9593 29.8525L34.2187 33.9931L35.378 35.0408L38.5437 31.5392L38.553 31.5478L43.3749 26.165C43.504 26.0204 43.5747 25.833 43.5734 25.6392L43.546 20.9853C43.5448 20.7767 43.5848 20.57 43.6637 20.377C43.7427 20.184 43.859 20.0085 44.0061 19.8606C44.1531 19.7127 44.3279 19.5953 44.5205 19.5152C44.713 19.4351 44.9195 19.3939 45.128 19.3939C45.5407 19.3964 45.9362 19.5591 46.2311 19.8477C46.526 20.1364 46.6972 20.5283 46.7085 20.9408L46.8921 29.222L36.9312 41.2142C36.815 41.3543 36.7515 41.5306 36.7515 41.7126V42.8009H38.314V41.9955L48.2812 29.9923C48.4013 29.8475 48.4651 29.6641 48.4609 29.4759L48.271 20.9025C48.2481 20.0825 47.9075 19.3035 47.3211 18.7299C46.7347 18.1563 45.9483 17.833 45.128 17.8283ZM37.7007 46.0658V48.5486H29.6538V46.0658H37.7007ZM12.3773 44.5033H12.2101C12.0029 44.5033 11.8042 44.5856 11.6576 44.7321C11.5111 44.8786 11.4288 45.0773 11.4288 45.2845V49.3298C11.4288 49.537 11.5111 49.7357 11.6576 49.8822C11.8042 50.0288 12.0029 50.1111 12.2101 50.1111H21.8195C22.0267 50.1111 22.2254 50.0288 22.3719 49.8822C22.5184 49.7357 22.6007 49.537 22.6007 49.3298V45.2845C22.6007 45.0773 22.5184 44.8786 22.3719 44.7321C22.2254 44.5856 22.0267 44.5033 21.8195 44.5033H13.9398V41.7126C13.9395 41.5305 13.8757 41.3542 13.7593 41.2142L3.79836 29.2181L3.98429 20.9369C3.99564 20.5244 4.16683 20.1324 4.46172 19.8438C4.75662 19.5552 5.15213 19.3925 5.56476 19.39C5.7733 19.3899 5.9798 19.431 6.17236 19.5111C6.36492 19.5912 6.53973 19.7085 6.68671 19.8565C6.8337 20.0044 6.94996 20.18 7.02879 20.373C7.10762 20.5661 7.14746 20.7729 7.14601 20.9814L7.11867 25.6353C7.11797 25.8291 7.18892 26.0164 7.31789 26.1611L12.1398 31.5439L12.1484 31.5361L15.3124 35.0376L16.4718 33.99L12.7312 29.8494C12.5276 29.6253 12.4186 29.3311 12.427 29.0285C12.4354 28.7259 12.5607 28.4383 12.7765 28.2259C13.0048 28.0064 13.3097 27.8845 13.6265 27.8861C13.784 27.8888 13.9394 27.9233 14.0833 27.9875C14.2272 28.0516 14.3567 28.1442 14.464 28.2595L19.8616 34.054C20.0186 34.2224 20.1057 34.4442 20.1054 34.6744V42.6329H21.6679V34.6775C21.6688 34.0515 21.4313 33.4487 21.0038 32.9915L15.6069 27.197C15.3571 26.9276 15.0551 26.7117 14.7194 26.5622C14.3837 26.4128 14.0212 26.3329 13.6538 26.3275C13.2873 26.3173 12.9226 26.3822 12.5821 26.5183C12.2416 26.6545 11.9326 26.8588 11.6741 27.1189C11.4157 27.3748 11.2109 27.6797 11.0718 28.0158L8.67804 25.3439L8.70382 20.9915C8.7064 20.5771 8.62699 20.1662 8.47015 19.7825C8.31332 19.3988 8.08216 19.0499 7.78998 18.7559C7.4978 18.4619 7.15036 18.2286 6.76766 18.0694C6.38497 17.9102 5.97457 17.8283 5.56008 17.8283C4.7406 17.8342 3.95543 18.158 3.37002 18.7315C2.7846 19.305 2.44465 20.0833 2.42179 20.9025L2.22961 29.4759C2.2264 29.664 2.29039 29.8471 2.41008 29.9923L12.3773 41.9955V44.5033ZM21.0374 46.0658V48.5486H12.9905V46.0658H21.0374Z" fill="black"/>
<path d="M11.7624 18.5189L24.7827 31.5392C24.9292 31.6857 25.1279 31.7679 25.3351 31.7679C25.5422 31.7679 25.7409 31.6857 25.8874 31.5392L38.9062 18.5189C42.0695 15.3556 43.3249 11.4572 42.3515 7.82201C41.9073 6.17468 41.0386 4.67276 39.8322 3.46632C38.6257 2.25989 37.1238 1.39118 35.4765 0.947011C32.0562 0.032167 28.3937 1.0931 25.3351 3.86732C20.278 -0.713145 14.3366 0.19701 10.9507 3.58217C7.44054 7.09154 6.59211 13.3494 11.7624 18.5189ZM12.0554 4.68685C13.582 3.15015 15.6557 2.2817 17.8218 2.27201C20.0437 2.27201 22.4812 3.19701 24.7827 5.49857C24.9292 5.64504 25.1279 5.72731 25.3351 5.72731C25.5422 5.72731 25.7409 5.64504 25.8874 5.49857C28.6874 2.69935 31.953 1.61967 35.078 2.45795C36.4603 2.83072 37.7205 3.55967 38.7328 4.57196C39.7451 5.58426 40.474 6.84447 40.8468 8.2267C41.6843 11.3517 40.6046 14.6158 37.8062 17.4142L25.3351 29.8822L12.8671 17.4142C8.21632 12.7634 9.18586 7.55639 12.0554 4.68685Z" fill="black"/>
</g>
</g>
<defs>
<clipPath id="clip0_535_1615">
<rect width="50" height="50" fill="white"/>
</clipPath>
</defs>
</svg>
