<svg width="50" height="50" viewBox="0 0 50 50" fill="none" xmlns="http://www.w3.org/2000/svg">
<g id="Scale">
<path id="Vector" d="M0.463216 12.3758H0.463081L0.463353 12.38L2.35384 41.4638C2.35517 44.0461 4.78489 46.1311 7.75098 46.1311H42.2479C45.213 46.1311 47.6437 44.0466 47.6434 41.5173L49.537 12.3265L49.5372 12.3265V12.3223C49.5372 11.7592 49.1536 11.1978 48.5633 10.664C47.9706 10.128 47.1563 9.60815 46.2668 9.12896C44.4873 8.17029 42.3944 7.3679 41.1373 6.92031C35.689 4.98116 29.773 3.86849 24.9049 3.86849C19.6343 3.86849 13.5322 5.18969 8.74803 6.90645C6.35591 7.76483 4.29033 8.72315 2.82157 9.66658C2.08735 10.1382 1.49981 10.6076 1.09514 11.0609C0.691501 11.513 0.463009 11.9567 0.463216 12.3758ZM45.8735 41.4579L45.8734 41.4579V41.4621C45.8734 43.0471 44.2607 44.3599 42.2479 44.3599H7.75098C5.73855 44.3599 4.12541 43.0478 4.12389 41.4085H4.12403L4.12376 41.4044L3.00091 24.1132H46.9991L45.8735 41.4579ZM15.7086 21.2617L15.7087 21.2618C15.8387 21.4805 16.1202 21.5531 16.3409 21.4242L16.3411 21.424C19.1066 19.7894 22.26 18.9268 25.4725 18.9264C28.6823 18.9264 31.84 19.7897 34.6034 21.424C34.6556 21.4549 34.7133 21.4752 34.7734 21.4838C34.8334 21.4923 34.8945 21.489 34.9533 21.4739C35.012 21.4588 35.0672 21.4323 35.1157 21.3959C35.1642 21.3595 35.2051 21.3139 35.2359 21.2616L39.8589 13.4445C39.8899 13.3923 39.9102 13.3345 39.9187 13.2745C39.9273 13.2145 39.9239 13.1533 39.9089 13.0946C39.8938 13.0358 39.8673 12.9806 39.8309 12.9321C39.7944 12.8836 39.7488 12.8428 39.6966 12.8119C35.3917 10.2662 30.4732 8.92044 25.4721 8.92044C20.471 8.92044 15.5525 10.2662 11.2475 12.8119L11.2473 12.8121C11.1423 12.8747 11.0663 12.9763 11.0359 13.0947C11.0055 13.2132 11.0232 13.3388 11.0851 13.4443L11.0852 13.4445L15.7086 21.2617ZM22.5594 18.2354L22.5593 18.2354C22.559 18.2364 22.5587 18.2374 22.5584 18.2384C20.3513 18.5807 18.2224 19.3122 16.2711 20.3989L12.1173 13.3754C16.1875 11.0616 20.7894 9.84439 25.4721 9.84362C30.1548 9.84434 34.7566 11.0615 38.8269 13.3754L34.6734 20.3992C32.4276 19.1443 29.9488 18.3734 27.399 18.1114L25.4383 12.0609C25.4084 11.9679 25.3497 11.8869 25.2707 11.8294C25.1918 11.7719 25.0967 11.741 24.999 11.741C24.9014 11.741 24.8062 11.7719 24.7273 11.8294C24.6484 11.8869 24.5897 11.9679 24.5597 12.0609L22.5594 18.2354ZM24.9049 5.6401C30.168 5.6401 35.7246 6.94238 40.0496 8.44062C42.2118 9.18965 44.0646 9.98712 45.4175 10.6942C46.0941 11.0478 46.6444 11.3782 47.0455 11.6679C47.2461 11.8128 47.4083 11.9468 47.53 12.0676C47.6461 12.1829 47.7222 12.2832 47.7611 12.3669L47.0607 23.1622H2.93894L2.23761 12.3598C2.27396 12.2738 2.34644 12.1714 2.45796 12.0541C2.57444 11.9317 2.73026 11.7964 2.9236 11.6504C3.31023 11.3584 3.84266 11.0267 4.49988 10.6726C5.81404 9.96437 7.62198 9.16894 9.74831 8.42311C14.0013 6.93131 19.5219 5.6401 24.9049 5.6401ZM26.403 18.0329C25.9074 18.0222 24.2635 18.0494 23.5712 18.109L24.9994 13.7014L26.403 18.0329Z" fill="black" stroke="black" stroke-width="0.130208"/>
</g>
</svg>
