<svg width="50" height="50" viewBox="0 0 50 50" fill="none" xmlns="http://www.w3.org/2000/svg">
<g id="Timer" clip-path="url(#clip0_534_1482)">
<g id="Vector">
<path d="M42.9953 11.0559L47.3464 15.3942C47.7271 15.0149 48.0291 14.5646 48.2351 14.0691C48.4412 13.5736 48.5472 13.0425 48.5472 12.5061C48.5472 11.9697 48.4412 11.4386 48.2351 10.9431C48.0291 10.4476 47.7271 9.99731 47.3464 9.61804C46.9656 9.23878 46.5137 8.93793 46.0162 8.73267C45.5188 8.52742 44.9857 8.42177 44.4472 8.42177C43.9088 8.42177 43.3757 8.52742 42.8782 8.73267C42.3808 8.93793 41.9288 9.23878 41.5481 9.61804L42.9896 11.0559H42.9953ZM17.1598 38.6043C18.4781 39.9316 20.0488 40.9839 21.78 41.6996C23.5113 42.4154 25.3684 42.7801 27.2428 42.7726C29.5854 42.7706 31.8914 42.1934 33.9568 41.0921C36.0221 39.9907 37.7831 38.3992 39.0838 36.4583C40.3846 34.5174 41.1851 32.2871 41.4144 29.9646C41.6437 27.6421 41.2948 25.2992 40.3985 23.143C39.5023 20.9869 38.0863 19.0841 36.276 17.603C34.4656 16.1219 32.3167 15.1082 30.0193 14.6515C27.722 14.1949 25.3471 14.3094 23.1047 14.985C20.8624 15.6605 18.8218 16.8763 17.1635 18.5247L18.6051 19.9626C20.3136 18.2591 22.4909 17.0986 24.8616 16.628C27.2323 16.1574 29.6899 16.3979 31.9234 17.3189C34.1569 18.2399 36.066 19.8002 37.4092 21.8022C38.7524 23.8043 39.4693 26.1583 39.4693 28.5664C39.4693 30.9744 38.7524 33.3284 37.4092 35.3305C36.066 37.3326 34.1569 38.8928 31.9234 39.8138C29.6899 40.7349 27.2323 40.9753 24.8616 40.5047C22.4909 40.0341 20.3136 38.8737 18.6051 37.1701L17.1598 38.6043Z" fill="black"/>
<path d="M27.2428 7.14985C24.4181 7.13924 21.6196 7.68926 19.0106 8.76781C16.4016 9.84636 14.0344 11.4318 12.0472 13.4317L13.4925 14.8639C15.2918 13.056 17.4341 11.6228 19.7948 10.6477C22.1554 9.67253 24.6872 9.175 27.2428 9.18403C29.815 9.15875 32.3668 9.64162 34.7506 10.6047C37.1343 11.5678 39.3029 12.992 41.1307 14.7951C42.9586 16.5981 44.4096 18.7442 45.3999 21.1092C46.3902 23.4742 46.9 26.0114 46.9 28.5739C46.9 31.1364 46.3902 33.6736 45.3999 36.0386C44.4096 38.4037 42.9586 40.5497 41.1307 42.3528C39.3029 44.1558 37.1343 45.58 34.7506 46.5431C32.3668 47.5062 29.815 47.9891 27.2428 47.9638C24.6872 47.9728 22.1554 47.4753 19.7948 46.5002C17.4341 45.525 15.2918 44.0918 13.4925 42.2839L12.0472 43.7161C14.0343 45.7162 16.4014 47.302 19.0104 48.3809C21.6194 49.4597 24.418 50.0101 27.2428 49.9999C32.9469 49.9999 38.4173 47.7426 42.4507 43.7246C46.4841 39.7066 48.75 34.2571 48.75 28.5749C48.75 22.8926 46.4841 17.4431 42.4507 13.4251C38.4173 9.40712 32.9469 7.14985 27.2428 7.14985Z" fill="black"/>
<path d="M26.2237 21.0457V29.5901H36.6951V27.5559H28.2657V21.0457H26.2237Z" fill="black"/>
<path d="M24.57 5.37795H29.9364C30.6523 5.37795 31.3389 5.09465 31.8451 4.59037C32.3513 4.08609 32.6357 3.40214 32.6357 2.68898C32.6357 1.97582 32.3513 1.29186 31.8451 0.787583C31.3389 0.283302 30.6523 1.06269e-08 29.9364 0H24.57C24.2156 -5.26192e-09 23.8645 0.0695523 23.5371 0.204686C23.2096 0.33982 22.912 0.537889 22.6613 0.787583C22.4107 1.03728 22.2119 1.33371 22.0762 1.65995C21.9406 1.98619 21.8707 2.33585 21.8707 2.68898C21.8707 3.0421 21.9406 3.39176 22.0762 3.718C22.2119 4.04424 22.4107 4.34067 22.6613 4.59037C22.912 4.84006 23.2096 5.03813 23.5371 5.17327C23.8645 5.3084 24.2156 5.37795 24.57 5.37795Z" fill="black"/>
<path d="M15.7069 20.9929H1V23.0271H15.7069V20.9929Z" fill="black"/>
<path d="M19.4954 27.5578H4.78848V29.5919H19.4954V27.5578Z" fill="black"/>
<path d="M15.7069 34.1226H1V36.1568H15.7069V34.1226Z" fill="black"/>
</g>
</g>
<defs>
<clipPath id="clip0_534_1482">
<rect width="50" height="50" fill="white"/>
</clipPath>
</defs>
</svg>
