<svg
  width="25"
  height="25"
  viewBox="0 0 25 25"
  fill="none"
  xmlns="http://www.w3.org/2000/svg"
>
  <g id="Map">
    <path
      id="Vector"
      fillRule="evenodd"
      clip-rule="evenodd"
      d="M5.5064 23.6002H19.6666C19.8752 23.6002 20.0753 23.5173 20.2228 23.3697C20.3704 23.2222 20.4532 23.0221 20.4532 22.8135C20.4532 22.6048 20.3704 22.4047 20.2228 22.2572C20.0753 22.1097 19.8752 22.0268 19.6666 22.0268H5.5064C5.29776 22.0268 5.09767 22.1097 4.95014 22.2572C4.80261 22.4047 4.71973 22.6048 4.71973 22.8135C4.71973 23.0221 4.80261 23.2222 4.95014 23.3697C5.09767 23.5173 5.29776 23.6002 5.5064 23.6002ZM19.6666 8.54083C19.6666 4.36437 16.4978 1.57324 12.5865 1.57324C8.67513 1.57324 5.5064 4.36437 5.5064 8.54083C5.5064 10.6538 6.55425 12.9879 7.8444 15.016C9.70725 17.9424 12.035 20.2277 12.035 20.2277C12.182 20.3725 12.3801 20.4536 12.5865 20.4536C12.7928 20.4536 12.9909 20.3725 13.1379 20.2277C13.1379 20.2277 15.4657 17.9424 17.3286 15.016C18.6187 12.9879 19.6666 10.6538 19.6666 8.54083ZM18.0932 8.54083C18.0932 10.384 17.1272 12.4018 16.0007 14.1711C14.7821 16.0866 13.3527 17.7127 12.5865 18.5332C11.8203 17.7127 10.3909 16.0866 9.17231 14.1711C8.04579 12.4018 7.07975 10.384 7.07975 8.54083C7.07975 5.29972 9.55149 3.14659 12.5865 3.14659C15.6215 3.14659 18.0932 5.29972 18.0932 8.54083ZM12.5865 4.71994C10.4153 4.71994 8.6531 6.4821 8.6531 8.65332C8.6531 10.8245 10.4153 12.5867 12.5865 12.5867C14.7577 12.5867 16.5199 10.8245 16.5199 8.65332C16.5199 6.4821 14.7577 4.71994 12.5865 4.71994Z"
      fill="#F2B700"
    />
  </g>
</svg>
