<svg width="25" height="25" viewBox="0 0 25 25" fill="none" xmlns="http://www.w3.org/2000/svg">
<g id="Phone" clip-path="url(#clip0_515_2329)">
<path id="Vector" d="M18.3203 16.3496C18.1025 16.1311 17.8438 15.9578 17.5589 15.8395C17.274 15.7212 16.9686 15.6603 16.6601 15.6603C16.3517 15.6603 16.0462 15.7212 15.7613 15.8395C15.4765 15.9578 15.2177 16.1311 15 16.3496L13.8672 17.4824C12.5917 16.673 11.41 15.7244 10.3437 14.6543C9.27586 13.586 8.32756 12.4046 7.5156 11.1309L8.64841 9.99807C8.86691 9.78033 9.04028 9.5216 9.15858 9.23671C9.27687 8.95182 9.33776 8.64639 9.33776 8.33792C9.33776 8.02944 9.27687 7.72401 9.15858 7.43912C9.04028 7.15423 8.86691 6.8955 8.64841 6.67776L6.43748 4.47463C6.22281 4.25541 5.96626 4.08158 5.68308 3.96347C5.39989 3.84537 5.09586 3.7854 4.78904 3.78713C4.48004 3.78638 4.17394 3.84673 3.88836 3.96472C3.60277 4.08271 3.34333 4.256 3.12497 4.47463L2.06247 5.52932C1.55605 6.07383 1.17808 6.7249 0.956353 7.43469C0.734629 8.14448 0.674787 8.89493 0.781224 9.63088C1.03122 12.5606 2.9531 16.084 5.91404 19.0528C8.87498 22.0215 12.4375 23.9356 15.3672 24.2168C15.5858 24.2285 15.8048 24.2285 16.0234 24.2168C16.6541 24.2433 17.2836 24.1436 17.8753 23.9236C18.4669 23.7036 19.0086 23.3677 19.4687 22.9356L20.5234 21.8731C20.742 21.6547 20.9153 21.3953 21.0333 21.1097C21.1513 20.8241 21.2117 20.518 21.2109 20.209C21.2126 19.9022 21.1527 19.5982 21.0346 19.315C20.9165 19.0318 20.7426 18.7752 20.5234 18.5606L18.3203 16.3496ZM19.4219 20.7715L18.3594 21.8262C17.9665 22.1536 17.5079 22.3928 17.0146 22.5276C16.5213 22.6624 16.0047 22.6896 15.5 22.6074C12.9609 22.3887 9.72654 20.5918 7.05466 17.9199C4.38279 15.2481 2.58591 12.0371 2.34372 9.49807C2.25947 8.99332 2.28569 8.47629 2.42057 7.98265C2.55544 7.48901 2.79577 7.03048 3.12497 6.6387L4.22654 5.5762C4.29954 5.50379 4.38611 5.4465 4.4813 5.40762C4.57648 5.36875 4.67841 5.34904 4.78123 5.34963C4.88404 5.34904 4.98597 5.36875 5.08115 5.40762C5.17634 5.4465 5.26291 5.50379 5.33591 5.5762L7.54685 7.81057C7.69236 7.95695 7.77403 8.15496 7.77403 8.36135C7.77403 8.56775 7.69236 8.76576 7.54685 8.91213L5.98435 10.4746C5.86208 10.5963 5.78352 10.755 5.7609 10.926C5.73829 11.097 5.77291 11.2707 5.85935 11.4199C6.79481 13.0125 7.9318 14.4777 9.24216 15.7793C10.5438 17.0897 12.009 18.2267 13.6015 19.1621C13.7508 19.2486 13.9245 19.2832 14.0955 19.2606C14.2665 19.238 14.4252 19.1594 14.5469 19.0371L16.1094 17.4746C16.2557 17.3291 16.4537 17.2475 16.6601 17.2475C16.8665 17.2475 17.0645 17.3291 17.2109 17.4746L19.4219 19.6856C19.4943 19.7586 19.5515 19.8451 19.5904 19.9403C19.6293 20.0355 19.649 20.1374 19.6484 20.2403C19.6435 20.4398 19.5625 20.6299 19.4219 20.7715ZM20.7812 4.20901C19.6955 3.11914 18.4048 2.25498 16.9834 1.66634C15.5621 1.0777 14.0384 0.776233 12.5 0.77932C12.2928 0.77932 12.0941 0.86163 11.9475 1.00814C11.801 1.15466 11.7187 1.35337 11.7187 1.56057C11.7187 1.76777 11.801 1.96648 11.9475 2.113C12.0941 2.25951 12.2928 2.34182 12.5 2.34182C13.841 2.34177 15.1687 2.60729 16.4066 3.12306C17.6444 3.63882 18.7679 4.39462 19.7121 5.34684C20.6563 6.29905 21.4026 7.42883 21.9079 8.67098C22.4133 9.91313 22.6676 11.2431 22.6562 12.584C22.6562 12.7912 22.7385 12.9899 22.8851 13.1364C23.0316 13.2829 23.2303 13.3653 23.4375 13.3653C23.6447 13.3653 23.8434 13.2829 23.9899 13.1364C24.1364 12.9899 24.2187 12.7912 24.2187 12.584C24.2337 11.0293 23.9373 9.48727 23.3469 8.0489C22.7565 6.61054 21.8841 5.30492 20.7812 4.20901Z" fill="#F2B700"/>
<path id="Vector_2" d="M16.3354 8.67676C16.7788 9.11745 17.1296 9.64238 17.367 10.2206C17.6045 10.7989 17.7239 11.4188 17.7183 12.0439C17.7183 12.2511 17.8006 12.4499 17.9471 12.5964C18.0936 12.7429 18.2923 12.8252 18.4995 12.8252C18.7067 12.8252 18.9054 12.7429 19.0519 12.5964C19.1985 12.4499 19.2808 12.2511 19.2808 12.0439C19.2911 11.2166 19.1371 10.3955 18.8276 9.62818C18.5182 8.86085 18.0594 8.1626 17.478 7.57394C16.8966 6.98527 16.2041 6.5179 15.4407 6.19893C14.6773 5.87997 13.8581 5.71576 13.0308 5.71582C12.8236 5.71582 12.6248 5.79813 12.4783 5.94464C12.3318 6.09116 12.2495 6.28987 12.2495 6.49707C12.2495 6.70427 12.3318 6.90298 12.4783 7.0495C12.6248 7.19601 12.8236 7.27832 13.0308 7.27832C13.6465 7.28296 14.2552 7.40885 14.8222 7.64879C15.3892 7.88874 15.9034 8.23805 16.3354 8.67676Z" fill="#F2B700"/>
</g>
<defs>
<clipPath id="clip0_515_2329">
<rect width="25" height="25" fill="white"/>
</clipPath>
</defs>
</svg>
