<svg width="25" height="25" viewBox="0 0 25 25" fill="none" xmlns="http://www.w3.org/2000/svg">
<g id="Alarm" clip-path="url(#clip0_515_2324)">
<path id="Vector" d="M22.9388 6.0625L18.1471 2.05208L16.793 3.66667L21.5846 7.67708L22.9388 6.0625ZM8.19922 3.61458L6.84505 2L2.10547 6.0625L3.45964 7.67708L8.19922 3.61458ZM13.043 8.40625H11.4805V14.6563L16.4284 17.625L17.2096 16.3229L13.043 13.875V8.40625ZM12.5221 4.23958C7.3138 4.23958 3.14714 8.45833 3.14714 13.6146C3.14714 18.7708 7.3138 22.9896 12.5221 22.9896C17.6784 22.9896 21.8971 18.7708 21.8971 13.6146C21.8971 8.45833 17.6784 4.23958 12.5221 4.23958ZM12.5221 20.9063C8.51172 20.9063 5.23047 17.625 5.23047 13.6146C5.23047 9.60417 8.51172 6.32292 12.5221 6.32292C16.5326 6.32292 19.8138 9.60417 19.8138 13.6146C19.8138 17.6771 16.5326 20.9063 12.5221 20.9063Z" fill="#F2B700"/>
</g>
<defs>
<clipPath id="clip0_515_2324">
<rect width="25" height="25" fill="white"/>
</clipPath>
</defs>
</svg>
