<svg width="92" height="94" viewBox="0 0 92 94" fill="none" xmlns="http://www.w3.org/2000/svg">
<g id="Calendar">
<g id="Vector">
<path d="M77.4392 14.6778H69.8283V6.96095C69.8283 6.27874 69.564 5.62447 69.0936 5.14207C68.6231 4.65968 67.9851 4.38867 67.3198 4.38867C66.6545 4.38867 66.0164 4.65968 65.546 5.14207C65.0755 5.62447 64.8112 6.27874 64.8112 6.96095V14.6778H25.9291V6.96095C25.9291 6.27874 25.6648 5.62447 25.1943 5.14207C24.7239 4.65968 24.0858 4.38867 23.4205 4.38867C22.7552 4.38867 22.1172 4.65968 21.6467 5.14207C21.1763 5.62447 20.912 6.27874 20.912 6.96095V14.6778H14.5554C12.2496 14.6781 10.0383 15.6175 8.40778 17.2895C6.77731 18.9614 5.86117 21.2289 5.86084 23.5933V80.3584C5.86117 82.7228 6.77731 84.9903 8.40778 86.6622C10.0383 88.3341 12.2496 89.2735 14.5554 89.2739H77.4392C79.745 89.2735 81.9563 88.3341 83.5868 86.6622C85.2172 84.9903 86.1334 82.7228 86.1337 80.3584V23.5933C86.1334 21.2289 85.2172 18.9614 83.5868 17.2895C81.9563 15.6175 79.745 14.6781 77.4392 14.6778ZM14.5554 19.8223H20.912V26.253C20.912 26.9353 21.1763 27.5895 21.6467 28.0719C22.1172 28.5543 22.7552 28.8253 23.4205 28.8253C24.0858 28.8253 24.7239 28.5543 25.1943 28.0719C25.6648 27.5895 25.9291 26.9353 25.9291 26.253V19.8223H64.8112V26.253C64.8112 26.9353 65.0755 27.5895 65.546 28.0719C66.0164 28.5543 66.6545 28.8253 67.3198 28.8253C67.9851 28.8253 68.6231 28.5543 69.0936 28.0719C69.564 27.5895 69.8283 26.9353 69.8283 26.253V19.8223H77.4392C78.4145 19.8223 79.3499 20.2196 80.0395 20.9268C80.7292 21.634 81.1167 22.5932 81.1167 23.5933V36.5422H10.8779V23.5933C10.8779 22.5932 11.2653 21.634 11.955 20.9268C12.6447 20.2196 13.5801 19.8223 14.5554 19.8223ZM77.4392 84.1293H14.5554C14.0725 84.1293 13.5943 84.0318 13.1481 83.8423C12.7019 83.6528 12.2965 83.375 11.955 83.0248C11.6135 82.6747 11.3426 82.259 11.1578 81.8014C10.973 81.3439 10.8779 80.8536 10.8779 80.3584V39.1144H81.1167V80.3584C81.1168 80.8536 81.0218 81.3441 80.8371 81.8016C80.6523 82.2592 80.3814 82.675 80.0399 83.0252C79.6984 83.3754 79.2929 83.6532 78.8467 83.8426C78.4004 84.0321 77.9221 84.1295 77.4392 84.1293Z" fill="black"/>
<path d="M25.119 63.2051C25.3494 62.5029 26.3428 62.5029 26.5733 63.2051L28.103 67.8662C28.2061 68.1804 28.4994 68.3928 28.8301 68.3928H33.7639C34.5071 68.3928 34.8141 69.3454 34.2107 69.7794L30.2325 72.6411C29.9615 72.8359 29.8481 73.1839 29.9522 73.501L31.4749 78.1406C31.7058 78.8444 30.9021 79.4331 30.3008 79.0006L26.293 76.1177C26.026 75.9256 25.6662 75.9256 25.3992 76.1177L21.3914 79.0006C20.7902 79.4331 19.9864 78.8444 20.2174 78.1406L21.7401 73.501C21.8441 73.1839 21.7307 72.8359 21.4598 72.6411L17.4815 69.7794C16.8782 69.3454 17.1852 68.3928 17.9284 68.3928H22.8622C23.1929 68.3928 23.4862 68.1804 23.5893 67.8662L25.119 63.2051Z" fill="black"/>
<path d="M35.1922 43.3939C35.4178 42.6817 36.4256 42.6817 36.6513 43.3939L38.0983 47.9607C38.1991 48.2788 38.4943 48.4949 38.8279 48.4949H43.5508C44.2875 48.4949 44.5988 49.4338 44.008 49.8739L40.1543 52.7449C39.8928 52.9397 39.7835 53.2789 39.882 53.5898L41.3461 58.2105C41.5706 58.9189 40.7553 59.4994 40.1594 59.0553L36.3789 56.2389C36.1076 56.0368 35.7358 56.0368 35.4645 56.2389L31.684 59.0553C31.0881 59.4993 30.2728 58.9189 30.4973 58.2105L31.9614 53.5898C32.0599 53.2789 31.9506 52.9397 31.6891 52.7449L27.8354 49.8739C27.2446 49.4337 27.5559 48.4949 28.2926 48.4949H33.0155C33.3491 48.4949 33.6443 48.2788 33.7451 47.9607L35.1922 43.3939Z" fill="black"/>
<path d="M56.0896 43.3939C56.3153 42.6817 57.3231 42.6817 57.5487 43.3939L58.9958 47.9607C59.0966 48.2788 59.3918 48.4949 59.7254 48.4949H64.4483C65.185 48.4949 65.4963 49.4338 64.9055 49.8739L61.0518 52.7449C60.7903 52.9397 60.681 53.2789 60.7795 53.5898L62.2436 58.2105C62.4681 58.9189 61.6528 59.4994 61.0568 59.0553L57.2764 56.2389C57.0051 56.0368 56.6333 56.0368 56.362 56.2389L52.5815 59.0553C51.9855 59.4993 51.1703 58.9189 51.3947 58.2105L52.8589 53.5898C52.9574 53.2789 52.8481 52.9397 52.5865 52.7449L48.7329 49.8739C48.1421 49.4337 48.4534 48.4949 49.1901 48.4949H53.913C54.2466 48.4949 54.5418 48.2788 54.6425 47.9607L56.0896 43.3939Z" fill="black"/>
<path d="M45.6409 63.2918C45.8666 62.5797 46.8743 62.5797 47.1 63.2918L48.5471 67.8587C48.6479 68.1767 48.943 68.3928 49.2766 68.3928H53.9996C54.7363 68.3928 55.0476 69.3317 54.4568 69.7718L50.6031 72.6429C50.3416 72.8377 50.2322 73.1769 50.3308 73.4878L51.7949 78.1084C52.0194 78.8169 51.2041 79.3973 50.6081 78.9533L46.8277 76.1368C46.5564 75.9347 46.1845 75.9347 45.9132 76.1368L42.1328 78.9533C41.5368 79.3973 40.7215 78.8169 40.946 78.1084L42.4101 73.4878C42.5087 73.1769 42.3993 72.8377 42.1378 72.6429L38.2841 69.7718C37.6933 69.3317 38.0046 68.3928 38.7413 68.3928H43.4643C43.7979 68.3928 44.093 68.1767 44.1938 67.8587L45.6409 63.2918Z" fill="black"/>
<path d="M66.5384 63.2918C66.764 62.5797 67.7718 62.5797 67.9975 63.2918L69.4446 67.8587C69.5453 68.1767 69.8405 68.3928 70.1741 68.3928H74.897C75.6338 68.3928 75.945 69.3317 75.3543 69.7718L71.5006 72.6429C71.2391 72.8377 71.1297 73.1769 71.2282 73.4878L72.6924 78.1084C72.9169 78.8169 72.1016 79.3973 71.5056 78.9533L67.7252 76.1368C67.4538 75.9347 67.082 75.9347 66.8107 76.1368L63.0303 78.9533C62.4343 79.3973 61.619 78.8169 61.8435 78.1084L63.3076 73.4878C63.4061 73.1769 63.2968 72.8377 63.0353 72.6429L59.1816 69.7718C58.5908 69.3317 58.9021 68.3928 59.6388 68.3928H64.3617C64.6953 68.3928 64.9905 68.1767 65.0913 67.8587L66.5384 63.2918Z" fill="black"/>
</g>
</g>
</svg>
