<svg width="89" height="91" viewBox="0 0 89 91" fill="none" xmlns="http://www.w3.org/2000/svg">
<g id="Calendar">
<g id="Vector">
<path d="M75.2841 13.7959H67.8625V6.27099C67.8625 5.60575 67.6048 4.96775 67.1461 4.49736C66.6874 4.02696 66.0652 3.7627 65.4164 3.7627C64.7677 3.7627 64.1455 4.02696 63.6867 4.49736C63.228 4.96775 62.9703 5.60575 62.9703 6.27099V13.7959H25.0553V6.27099C25.0553 5.60575 24.7976 4.96775 24.3389 4.49736C23.8801 4.02696 23.258 3.7627 22.6092 3.7627C21.9605 3.7627 21.3383 4.02696 20.8795 4.49736C20.4208 4.96775 20.1631 5.60575 20.1631 6.27099V13.7959H13.9646C11.7161 13.7962 9.55983 14.7122 7.96992 16.3426C6.38 17.9729 5.48665 20.184 5.48633 22.4896V77.8426C5.48665 80.1482 6.38 82.3593 7.96992 83.9896C9.55983 85.6199 11.7161 86.536 13.9646 86.5363H75.2841C77.5326 86.536 79.6889 85.6199 81.2788 83.9896C82.8687 82.3593 83.762 80.1482 83.7624 77.8426V22.4896C83.762 20.184 82.8687 17.9729 81.2788 16.3426C79.6889 14.7122 77.5326 13.7962 75.2841 13.7959ZM13.9646 18.8124H20.1631V25.0832C20.1631 25.7484 20.4208 26.3864 20.8795 26.8568C21.3383 27.3272 21.9605 27.5915 22.6092 27.5915C23.258 27.5915 23.8801 27.3272 24.3389 26.8568C24.7976 26.3864 25.0553 25.7484 25.0553 25.0832V18.8124H62.9703V25.0832C62.9703 25.7484 63.228 26.3864 63.6867 26.8568C64.1455 27.3272 64.7677 27.5915 65.4164 27.5915C66.0652 27.5915 66.6874 27.3272 67.1461 26.8568C67.6048 26.3864 67.8625 25.7484 67.8625 25.0832V18.8124H75.2841C76.2352 18.8124 77.1473 19.1999 77.8198 19.8895C78.4923 20.5791 78.8701 21.5144 78.8701 22.4896V35.1163H10.3786V22.4896C10.3786 21.5144 10.7564 20.5791 11.4289 19.8895C12.1014 19.1999 13.0135 18.8124 13.9646 18.8124ZM75.2841 81.5197H13.9646C13.4937 81.5197 13.0274 81.4246 12.5923 81.2398C12.1572 81.055 11.7619 80.7842 11.4289 80.4427C11.0959 80.1013 10.8318 79.6959 10.6516 79.2498C10.4713 78.8036 10.3786 78.3255 10.3786 77.8426V37.6246H78.8701V77.8426C78.8703 78.3255 78.7776 78.8038 78.5975 79.25C78.4173 79.6962 78.1532 80.1016 77.8201 80.4431C77.4871 80.7846 77.0917 81.0554 76.6566 81.2402C76.2214 81.4249 75.7551 81.5199 75.2841 81.5197Z" fill="#f2b700"/>
<path d="M34.4542 61.8623C34.679 61.1776 35.6476 61.1776 35.8724 61.8623L37.364 66.4074C37.4645 66.7138 37.7506 66.921 38.073 66.921H42.8841C43.6088 66.921 43.9082 67.8499 43.3198 68.2731L39.4405 71.0635C39.1763 71.2535 39.0658 71.5928 39.1672 71.902L40.652 76.4263C40.8772 77.1125 40.0935 77.6866 39.5072 77.2648L35.5991 74.4537C35.3387 74.2664 34.9879 74.2664 34.7275 74.4537L30.8194 77.2648C30.2331 77.6866 29.4494 77.1125 29.6746 76.4263L31.1594 71.902C31.2608 71.5928 31.1503 71.2535 30.8861 71.0635L27.0068 68.2731C26.4184 67.8499 26.7178 66.921 27.4425 66.921H32.2536C32.576 66.921 32.8621 66.7138 32.9626 66.4074L34.4542 61.8623Z" fill="#f2b700"/>
<path d="M34.088 41.0514C34.3081 40.3569 35.2908 40.3569 35.5108 41.0514L36.9219 45.5046C37.0202 45.8147 37.308 46.0255 37.6333 46.0255H42.2387C42.9571 46.0255 43.2607 46.941 42.6846 47.3702L38.9268 50.1698C38.6717 50.3598 38.5651 50.6905 38.6612 50.9936L40.0889 55.4994C40.3078 56.1902 39.5128 56.7562 38.9317 56.3232L35.2453 53.5768C34.9807 53.3797 34.6181 53.3797 34.3536 53.5768L30.6672 56.3232C30.086 56.7562 29.291 56.1902 29.5099 55.4994L30.9376 50.9936C31.0337 50.6905 30.9271 50.3598 30.6721 50.1698L26.9142 47.3702C26.3381 46.941 26.6417 46.0255 27.3601 46.0255H31.9655C32.2908 46.0255 32.5787 45.8147 32.6769 45.5046L34.088 41.0514Z" fill="#f2b700"/>
<path d="M54.4656 41.0514C54.6857 40.3569 55.6684 40.3569 55.8885 41.0514L57.2995 45.5046C57.3978 45.8147 57.6856 46.0255 58.011 46.0255H62.6164C63.3348 46.0255 63.6383 46.941 63.0622 47.3702L59.3044 50.1698C59.0494 50.3598 58.9428 50.6905 59.0388 50.9936L60.4666 55.4994C60.6855 56.1902 59.8905 56.7562 59.3093 56.3232L55.6229 53.5768C55.3583 53.3797 54.9958 53.3797 54.7312 53.5768L51.0448 56.3232C50.4637 56.7562 49.6686 56.1902 49.8876 55.4994L51.3153 50.9936C51.4113 50.6905 51.3047 50.3598 51.0497 50.1698L47.2919 47.3702C46.7158 46.941 47.0193 46.0255 47.7377 46.0255H52.3432C52.6685 46.0255 52.9563 45.8147 53.0546 45.5046L54.4656 41.0514Z" fill="#f2b700"/>
<path d="M54.4656 61.9469C54.6857 61.2524 55.6684 61.2524 55.8885 61.9469L57.2995 66.4001C57.3978 66.7102 57.6856 66.921 58.011 66.921H62.6164C63.3348 66.921 63.6383 67.8365 63.0622 68.2657L59.3044 71.0653C59.0494 71.2553 58.9428 71.586 59.0388 71.8892L60.4666 76.3949C60.6855 77.0857 59.8905 77.6517 59.3093 77.2188L55.6229 74.4724C55.3583 74.2753 54.9958 74.2753 54.7312 74.4724L51.0448 77.2188C50.4637 77.6517 49.6686 77.0857 49.8876 76.3949L51.3153 71.8892C51.4113 71.586 51.3047 71.2553 51.0497 71.0653L47.2919 68.2657C46.7158 67.8365 47.0193 66.921 47.7377 66.921H52.3432C52.6685 66.921 52.9563 66.7102 53.0546 66.4001L54.4656 61.9469Z" fill="#f2b700"/>
</g>
</g>
</svg>
