<svg width="84" height="85" viewBox="0 0 84 85" fill="none" xmlns="http://www.w3.org/2000/svg">
<g id="Calendar" clip-path="url(#clip0_515_2193)">
<g id="Vector">
<path d="M74.2102 10.3152H66.4275V2.61982C66.4275 1.93951 66.1573 1.28705 65.6762 0.805998C65.1952 0.324942 64.5427 0.0546875 63.8624 0.0546875C63.1821 0.0546875 62.5296 0.324942 62.0486 0.805998C61.5675 1.28705 61.2973 1.93951 61.2973 2.61982V10.3152H21.5377V2.61982C21.5377 1.93951 21.2674 1.28705 20.7864 0.805998C20.3053 0.324942 19.6529 0.0546875 18.9725 0.0546875C18.2922 0.0546875 17.6398 0.324942 17.1587 0.805998C16.6777 1.28705 16.4074 1.93951 16.4074 2.61982V10.3152H9.90736C7.54949 10.3156 5.28829 11.2524 3.62102 12.9196C1.95375 14.5869 1.01694 16.8481 1.0166 19.206V75.8134C1.01694 78.1712 1.95375 80.4324 3.62102 82.0997C5.28829 83.767 7.54949 84.7038 9.90736 84.7041H74.2102C76.568 84.7038 78.8292 83.767 80.4965 82.0997C82.1637 80.4324 83.1006 78.1712 83.1009 75.8134V19.206C83.1006 16.8481 82.1637 14.5869 80.4965 12.9196C78.8292 11.2524 76.568 10.3156 74.2102 10.3152ZM9.90736 15.4455H16.4074V21.8583C16.4074 22.5386 16.6777 23.1911 17.1587 23.6722C17.6398 24.1532 18.2922 24.4235 18.9725 24.4235C19.6529 24.4235 20.3053 24.1532 20.7864 23.6722C21.2674 23.1911 21.5377 22.5386 21.5377 21.8583V15.4455H61.2973V21.8583C61.2973 22.5386 61.5675 23.1911 62.0486 23.6722C62.5296 24.1532 63.1821 24.4235 63.8624 24.4235C64.5427 24.4235 65.1952 24.1532 65.6762 23.6722C66.1573 23.1911 66.4275 22.5386 66.4275 21.8583V15.4455H74.2102C75.2075 15.4455 76.164 15.8417 76.8692 16.5469C77.5744 17.2521 77.9706 18.2086 77.9706 19.206V32.1189H6.14687V19.206C6.14687 18.2086 6.54306 17.2521 7.24829 16.5469C7.95352 15.8417 8.91001 15.4455 9.90736 15.4455ZM74.2102 79.5739H9.90736C9.41352 79.5739 8.92452 79.4766 8.46828 79.2876C8.01204 79.0986 7.59748 78.8216 7.24829 78.4724C6.8991 78.1232 6.6221 77.7087 6.43312 77.2524C6.24414 76.7962 6.14687 76.3072 6.14687 75.8134V34.684H77.9706V75.8134C77.9708 76.3073 77.8736 76.7963 77.6847 77.2526C77.4958 77.709 77.2188 78.1236 76.8696 78.4728C76.5204 78.822 76.1057 79.099 75.6494 79.288C75.1931 79.4769 74.704 79.574 74.2102 79.5739Z" fill="currentColor"/>
<path d="M41.6973 44.2274C41.9315 43.5248 42.9492 43.5248 43.1834 44.2274L45.6916 51.7541C45.7963 52.0683 46.0963 52.281 46.4346 52.281H54.5486C55.3059 52.281 55.6204 53.2278 55.0074 53.662L48.4454 58.3104C48.171 58.5048 48.0562 58.8497 48.1611 59.1644L50.6681 66.6874C50.9024 67.3902 50.079 67.9753 49.4664 67.5414L42.8991 62.8892C42.6255 62.6954 42.2552 62.6954 41.9816 62.8892L35.4143 67.5414C34.8017 67.9753 33.9783 67.3903 34.2125 66.6874L36.7196 59.1644C36.8244 58.8497 36.7096 58.5048 36.4353 58.3104L29.8733 53.662C29.2603 53.2278 29.5748 52.281 30.332 52.281H38.446C38.7844 52.281 39.0843 52.0683 39.1891 51.7541L41.6973 44.2274Z" fill="currentColor"/>
</g>
</g>
<defs>
<clipPath id="clip0_515_2193">
<rect width="82.8266" height="84.713" fill="white" transform="translate(0.757812)"/>
</clipPath>
</defs>
</svg>
