<svg width="82" height="83" viewBox="0 0 82 83" fill="none" xmlns="http://www.w3.org/2000/svg">
<g id="Calendar">
<g id="Vector">
<path d="M69.3472 12.6644H62.5265V5.75669C62.5265 5.146 62.2897 4.56033 61.8681 4.12851C61.4465 3.69669 60.8747 3.4541 60.2784 3.4541C59.6822 3.4541 59.1104 3.69669 58.6888 4.12851C58.2672 4.56033 58.0303 5.146 58.0303 5.75669V12.6644H23.1849V5.75669C23.1849 5.146 22.9481 4.56033 22.5265 4.12851C22.1049 3.69669 21.5331 3.4541 20.9368 3.4541C20.3406 3.4541 19.7688 3.69669 19.3472 4.12851C18.9256 4.56033 18.6887 5.146 18.6887 5.75669V12.6644H12.9921C10.9256 12.6648 8.94391 13.5057 7.48271 15.0023C6.02152 16.4989 5.20049 18.5287 5.2002 20.6452V71.4587C5.20049 73.5752 6.02152 75.605 7.48271 77.1016C8.94391 78.5982 10.9256 79.4392 12.9921 79.4395H69.3472C71.4137 79.4392 73.3954 78.5982 74.8566 77.1016C76.3178 75.605 77.1388 73.5752 77.1391 71.4587V20.6452C77.1388 18.5287 76.3178 16.4989 74.8566 15.0023C73.3954 13.5057 71.4137 12.6648 69.3472 12.6644ZM12.9921 17.2696H18.6887V23.0261C18.6887 23.6368 18.9256 24.2224 19.3472 24.6543C19.7688 25.0861 20.3406 25.3287 20.9368 25.3287C21.5331 25.3287 22.1049 25.0861 22.5265 24.6543C22.9481 24.2224 23.1849 23.6368 23.1849 23.0261V17.2696H58.0303V23.0261C58.0303 23.6368 58.2672 24.2224 58.6888 24.6543C59.1104 25.0861 59.6822 25.3287 60.2784 25.3287C60.8747 25.3287 61.4465 25.0861 61.8681 24.6543C62.2897 24.2224 62.5265 23.6368 62.5265 23.0261V17.2696H69.3472C70.2213 17.2696 71.0596 17.6253 71.6777 18.2583C72.2957 18.8914 72.6429 19.75 72.6429 20.6452V32.2364H9.69638V20.6452C9.69638 19.75 10.0436 18.8914 10.6617 18.2583C11.2797 17.6253 12.118 17.2696 12.9921 17.2696ZM69.3472 74.8343H12.9921C12.5593 74.8343 12.1307 74.747 11.7309 74.5773C11.331 74.4077 10.9677 74.159 10.6617 73.8456C10.3556 73.5322 10.1129 73.16 9.94725 72.7505C9.78162 72.3409 9.69638 71.902 9.69638 71.4587V34.539H72.6429V71.4587C72.6431 71.902 72.5579 72.341 72.3924 72.7507C72.2268 73.1603 71.984 73.5325 71.678 73.8459C71.3719 74.1594 71.0085 74.4081 70.6086 74.5777C70.2087 74.7472 69.7801 74.8344 69.3472 74.8343Z" fill="black"/>
<path d="M21.7912 45.8246C21.9976 45.1964 22.8859 45.1964 23.0923 45.8246L24.4644 50.0005C24.5567 50.2817 24.8191 50.4717 25.1149 50.4717H29.5381C30.2034 50.4717 30.4779 51.3249 29.9376 51.7132L26.3728 54.2744C26.13 54.4489 26.0284 54.7607 26.1217 55.0448L27.4865 59.1987C27.6934 59.8285 26.9747 60.3558 26.4365 59.9691L22.8412 57.3859C22.6025 57.2144 22.281 57.2144 22.0423 57.3859L18.447 59.969C17.9088 60.3558 17.1901 59.8285 17.397 59.1987L18.7618 55.0448C18.8551 54.7607 18.7535 54.4489 18.5107 54.2744L14.946 51.7132C14.4056 51.3249 14.6801 50.4717 15.3454 50.4717H19.7686C20.0644 50.4717 20.3268 50.2817 20.4191 50.0005L21.7912 45.8246Z" fill="black"/>
<path d="M40.8514 45.9021C41.0535 45.265 41.9547 45.265 42.1568 45.9021L43.4548 49.9938C43.5451 50.2784 43.8092 50.4717 44.1076 50.4717H48.3418C49.0012 50.4717 49.2796 51.3127 48.7505 51.7064L45.2974 54.2761C45.063 54.4505 44.965 54.7544 45.0534 55.033L46.3658 59.1699C46.5669 59.8039 45.8378 60.3238 45.3043 59.9268L41.9128 57.403C41.6702 57.2225 41.338 57.2225 41.0954 57.403L37.7039 59.9268C37.1704 60.3238 36.4413 59.8039 36.6424 59.1699L37.9548 55.033C38.0431 54.7544 37.9452 54.4505 37.7108 54.2761L34.2577 51.7064C33.7285 51.3127 34.0069 50.4717 34.6664 50.4717H38.9006C39.199 50.4717 39.4631 50.2784 39.5533 49.9938L40.8514 45.9021Z" fill="black"/>
<path d="M59.5793 45.9021C59.7814 45.265 60.6826 45.265 60.8847 45.9021L62.1827 49.9938C62.273 50.2784 62.5371 50.4717 62.8355 50.4717H67.0697C67.7291 50.4717 68.0075 51.3127 67.4784 51.7064L64.0253 54.2761C63.7909 54.4505 63.6929 54.7544 63.7813 55.033L65.0937 59.1699C65.2948 59.8039 64.5657 60.3238 64.0322 59.9268L60.6407 57.403C60.3981 57.2225 60.0659 57.2225 59.8233 57.403L56.4318 59.9268C55.8983 60.3238 55.1692 59.8039 55.3703 59.1699L56.6827 55.033C56.771 54.7544 56.6731 54.4505 56.4387 54.2761L52.9856 51.7064C52.4564 51.3127 52.7348 50.4717 53.3943 50.4717H57.6285C57.9269 50.4717 58.191 50.2784 58.2812 49.9938L59.5793 45.9021Z" fill="black"/>
</g>
</g>
</svg>
