<svg width="91" height="93" viewBox="0 0 91 93" fill="none" xmlns="http://www.w3.org/2000/svg">
<g id="Calendar">
<g id="Vector">
<path d="M76.5107 14.3783H68.9082V6.68174C68.9082 6.00132 68.6442 5.34877 68.1743 4.86764C67.7044 4.38651 67.067 4.11621 66.4025 4.11621C65.7379 4.11621 65.1005 4.38651 64.6306 4.86764C64.1607 5.34877 63.8967 6.00132 63.8967 6.68174V14.3783H25.0573V6.68174C25.0573 6.00132 24.7933 5.34877 24.3234 4.86764C23.8535 4.38651 23.2162 4.11621 22.5516 4.11621C21.887 4.11621 21.2497 4.38651 20.7797 4.86764C20.3098 5.34877 20.0458 6.00132 20.0458 6.68174V14.3783H13.6962C11.3929 14.3787 9.18405 15.3156 7.55537 16.9831C5.92669 18.6507 5.01156 20.9122 5.01123 23.2705V79.8866C5.01156 82.2448 5.92669 84.5063 7.55537 86.1739C9.18405 87.8414 11.3929 88.7784 13.6962 88.7787H76.5107C78.814 88.7784 81.0229 87.8414 82.6515 86.1739C84.2802 84.5063 85.1954 82.2448 85.1957 79.8866V23.2705C85.1954 20.9122 84.2802 18.6507 82.6515 16.9831C81.0229 15.3156 78.814 14.3787 76.5107 14.3783ZM13.6962 19.5094H20.0458V25.9232C20.0458 26.6036 20.3098 27.2562 20.7797 27.7373C21.2497 28.2184 21.887 28.4887 22.5516 28.4887C23.2162 28.4887 23.8535 28.2184 24.3234 27.7373C24.7933 27.2562 25.0573 26.6036 25.0573 25.9232V19.5094H63.8967V25.9232C63.8967 26.6036 64.1607 27.2562 64.6306 27.7373C65.1005 28.2184 65.7379 28.4887 66.4025 28.4887C67.067 28.4887 67.7044 28.2184 68.1743 27.7373C68.6442 27.2562 68.9082 26.6036 68.9082 25.9232V19.5094H76.5107C77.485 19.5094 78.4193 19.9056 79.1082 20.611C79.7971 21.3163 80.1842 22.273 80.1842 23.2705V36.1853H10.0228V23.2705C10.0228 22.273 10.4098 21.3163 11.0987 20.611C11.7876 19.9056 12.7219 19.5094 13.6962 19.5094ZM76.5107 83.6476H13.6962C13.2138 83.6476 12.7361 83.5504 12.2904 83.3613C11.8448 83.1723 11.4398 82.8953 11.0987 82.546C10.7576 82.1968 10.487 81.7822 10.3024 81.3259C10.1178 80.8696 10.0228 80.3805 10.0228 79.8866V38.7509H80.1842V79.8866C80.1843 80.3805 80.0894 80.8697 79.9049 81.3261C79.7203 81.7824 79.4497 82.1971 79.1086 82.5464C78.7674 82.8957 78.3624 83.1727 77.9167 83.3617C77.4709 83.5506 76.9932 83.6478 76.5107 83.6476Z" fill="black"/>
<path d="M25.748 66.9706H29.4942V67.6099C29.4942 69.0201 30.6143 70.1669 31.9917 70.1669H35.7379C37.1153 70.1669 38.2354 69.0201 38.2354 67.6099V62.4958H51.9715V67.6099C51.9715 69.0201 53.0916 70.1669 54.469 70.1669H58.2152C59.5926 70.1669 60.7127 69.0201 60.7127 67.6099V66.9706H64.4589C65.8363 66.9706 66.9564 65.8238 66.9564 64.4136V52.9069C66.9564 51.4967 65.8363 50.3498 64.4589 50.3498H60.7127V49.7106C60.7127 48.3003 59.5926 47.1535 58.2152 47.1535H54.469C53.0916 47.1535 51.9715 48.3003 51.9715 49.7106V54.8246H38.2354V49.7106C38.2354 48.3003 37.1153 47.1535 35.7379 47.1535H31.9917C30.6143 47.1535 29.4942 48.3003 29.4942 49.7106V50.3498H25.748C24.3706 50.3498 23.2505 51.4967 23.2505 52.9069V64.4136C23.2505 65.8238 24.3706 66.9706 25.748 66.9706ZM64.4589 52.9069V64.4136H60.7127V52.9069H64.4589ZM54.469 49.7106H58.2152V67.6099H54.469V49.7106ZM51.8154 57.3817V59.9387H38.2354V57.3817H51.8154ZM31.9917 49.7106H35.7379V62.4958H35.7392V67.6099H31.9917V49.7106ZM25.748 52.9069H29.4942V64.4136H25.748V52.9069Z" fill="black"/>
</g>
</g>
</svg>
