<svg width="83" height="86" viewBox="0 0 83 86" fill="none" xmlns="http://www.w3.org/2000/svg">
<g id="Calendar">
<g id="Vector">
<path d="M70.3482 13.08H63.3635V5.94553C63.3635 5.3148 63.121 4.70991 62.6892 4.26393C62.2575 3.81794 61.672 3.56738 61.0614 3.56738C60.4508 3.56738 59.8653 3.81794 59.4335 4.26393C59.0018 4.70991 58.7593 5.3148 58.7593 5.94553V13.08H23.0762V5.94553C23.0762 5.3148 22.8337 4.70991 22.4019 4.26393C21.9702 3.81794 21.3847 3.56738 20.7741 3.56738C20.1635 3.56738 19.578 3.81794 19.1462 4.26393C18.7145 4.70991 18.472 5.3148 18.472 5.94553V13.08H12.6384C10.5222 13.0803 8.49289 13.9488 6.99657 15.4945C5.50024 17.0403 4.65948 19.1366 4.65918 21.3226V73.8035C4.65948 75.9895 5.50024 78.0859 6.99657 79.6316C8.49289 81.1773 10.5222 82.0459 12.6384 82.0462H70.3482C72.4643 82.0459 74.4937 81.1773 75.99 79.6316C77.4863 78.0859 78.3271 75.9895 78.3274 73.8035V21.3226C78.3271 19.1366 77.4863 17.0403 75.99 15.4945C74.4937 13.9488 72.4643 13.0803 70.3482 13.08ZM12.6384 17.8363H18.472V23.7816C18.472 24.4123 18.7145 25.0172 19.1462 25.4632C19.578 25.9092 20.1635 26.1598 20.7741 26.1598C21.3847 26.1598 21.9702 25.9092 22.4019 25.4632C22.8337 25.0172 23.0762 24.4123 23.0762 23.7816V17.8363H58.7593V23.7816C58.7593 24.4123 59.0018 25.0172 59.4335 25.4632C59.8653 25.9092 60.4508 26.1598 61.0614 26.1598C61.672 26.1598 62.2575 25.9092 62.6892 25.4632C63.121 25.0172 63.3635 24.4123 63.3635 23.7816V17.8363H70.3482C71.2433 17.8363 72.1017 18.2036 72.7346 18.8574C73.3675 19.5112 73.7231 20.398 73.7231 21.3226V33.2942H9.26344V21.3226C9.26344 20.398 9.61901 19.5112 10.2519 18.8574C10.8849 18.2036 11.7433 17.8363 12.6384 17.8363ZM70.3482 77.2899H12.6384C12.1952 77.2899 11.7563 77.1997 11.3468 77.0245C10.9374 76.8493 10.5653 76.5925 10.2519 76.2687C9.93854 75.945 9.68995 75.5607 9.52034 75.1377C9.35074 74.7147 9.26344 74.2614 9.26344 73.8035V35.6723H73.7231V73.8035C73.7233 74.2614 73.6361 74.7148 73.4665 75.1379C73.297 75.5609 73.0484 75.9453 72.735 76.2691C72.4215 76.5929 72.0494 76.8497 71.6399 77.0248C71.2304 77.2 70.7914 77.29 70.3482 77.2899Z" fill="black"/>
<path d="M27.4703 44.5201C27.6804 43.8687 28.5938 43.8687 28.8039 44.5201L31.055 51.4981C31.149 51.7894 31.4182 51.9866 31.7219 51.9866H39.0039C39.6836 51.9866 39.9658 52.8643 39.4157 53.2669L33.5265 57.5765C33.2802 57.7566 33.1772 58.0764 33.2713 58.3682L35.5213 65.3428C35.7315 65.9944 34.9926 66.5369 34.4428 66.1345L28.5488 61.8215C28.3032 61.6418 27.971 61.6418 27.7254 61.8215L21.8315 66.1345C21.2816 66.5369 20.5427 65.9944 20.7529 65.3428L23.0029 58.3682C23.097 58.0764 22.994 57.7566 22.7478 57.5765L16.8585 53.2669C16.3084 52.8643 16.5906 51.9866 17.2703 51.9866H24.5523C24.856 51.9866 25.1252 51.7894 25.2192 51.4981L27.4703 44.5201Z" fill="black"/>
<path d="M54.8675 44.5201C55.0777 43.8687 55.9911 43.8687 56.2012 44.5201L58.4523 51.4981C58.5463 51.7894 58.8155 51.9866 59.1191 51.9866H66.4012C67.0808 51.9866 67.3631 52.8643 66.8129 53.2669L60.9237 57.5765C60.6775 57.7566 60.5745 58.0764 60.6686 58.3682L62.9186 65.3428C63.1288 65.9944 62.3899 66.5369 61.84 66.1345L55.9461 61.8215C55.7005 61.6418 55.3682 61.6418 55.1226 61.8215L49.2287 66.1345C48.6789 66.5369 47.9399 65.9944 48.1502 65.3428L50.4001 58.3682C50.4943 58.0764 50.3912 57.7566 50.145 57.5765L44.2558 53.2669C43.7056 52.8643 43.9879 51.9866 44.6675 51.9866H51.9496C52.2533 51.9866 52.5224 51.7894 52.6164 51.4981L54.8675 44.5201Z" fill="black"/>
</g>
</g>
</svg>
